<svg width="1845" height="1825" xmlns="http://www.w3.org/2000/svg" xmlns:xlink="http://www.w3.org/1999/xlink" overflow="hidden"><defs><clipPath id="clip0"><rect x="2253" y="340" width="1845" height="1825"/></clipPath></defs><g clip-path="url(#clip0)" transform="translate(-2253 -340)"><path d="M3009.26 1444.56 3329.3 1629.85C3350.77 1642.39 3378.33 1635.14 3390.86 1613.68 3394.88 1606.8 3397 1598.98 3397 1591.01L3397 631.037C3397 594.061 3377.37 559.864 3345.44 541.215L3031.73 359.615C3008.69 346.143 2979.08 353.903 2965.61 376.948 2961.28 384.354 2959 392.778 2959 401.357L2959 1357C2959 1393.04 2978.13 1426.38 3009.26 1444.56Z" fill="#72C6CC" fill-rule="evenodd"/><path d="M3396.96 1591.39 3396.96 631.553C3396.96 594.584 3377.31 560.392 3345.35 541.747L3028.32 358.784C3018.44 353.027 3004.03 351.343 2989 356.974 3027.47 337.347 3064.16 333.436 3096.3 352.158L3387.39 520.182C3419.35 538.828 3439 573.02 3439 609.988L3439 1579.84C3438.99 1588.19 3434.46 1595.87 3427.14 1599.9L3376.62 1629C3389.39 1620.76 3397.06 1606.58 3396.96 1591.39Z" fill="#184954" fill-rule="evenodd"/><path d="M3043.28 402.115 3092.33 430.434 3092.33 449.458C3092.31 456.932 3096.29 463.845 3102.77 467.576L3241.96 547.693C3248.23 551.315 3256.25 549.176 3259.87 542.914 3261.02 540.919 3261.63 538.656 3261.63 536.351L3261.63 528.126 3321.45 562.677C3349 578.739 3365.96 608.209 3366 640.095L3366 1562.99C3366 1592.96 3347.38 1605.75 3321.5 1590.62L3031.38 1422.27C3004.51 1406.58 2987.99 1377.8 2988 1346.7L2988 422.86C2988 396.245 3010.57 382.82 3043.28 402.115Z" fill="#D4FCF8" fill-rule="evenodd" fill-opacity="0.780392"/><path d="M3010 941.021 3010 970.615C3010 974.567 3012.12 978.218 3015.54 980.178L3326.52 1158.54C3331.79 1161.57 3338.52 1159.73 3341.55 1154.45 3342.5 1152.78 3343 1150.88 3343 1148.96L3343 1119.31C3343 1115.35 3340.88 1111.7 3337.46 1109.73L3026.48 931.459C3021.21 928.432 3014.48 930.267 3011.45 935.554 3010.5 937.218 3010 939.103 3010 941.021Z" fill="#72C6CC" fill-rule="evenodd"/><path d="M3410 760.179 3410 823.349C3409.99 825.358 3411.58 826.993 3413.56 827 3414.19 827.002 3414.81 826.835 3415.36 826.513L3425.79 820.258C3428.39 818.683 3429.99 815.832 3430 812.748L3430 749.651C3430.01 747.642 3428.42 746.007 3426.44 746 3425.81 745.998 3425.19 746.166 3424.64 746.487L3414.25 752.633C3411.62 754.199 3410 757.074 3410 760.179Z" fill="#72C6CC" fill-rule="evenodd"/><path d="M3430 750.002 3430 750.002C3430 750.002 3430 749.335 3430 749 3431.36 749.335 3431.36 749.667 3430 750.002Z" fill="#5AA5AF" fill-rule="evenodd"/><path d="M3409.85 823.297 3409.85 759.904C3409.85 756.786 3411.48 753.902 3414.14 752.347L3424.59 746.177C3425.64 745.559 3426.92 745.518 3428 746.068 3426.48 744.932 3424.5 744.684 3422.76 745.411L3412.29 751.58C3409.64 753.148 3408 756.034 3408 759.155L3408 822.53C3408 825.031 3411.25 827.385 3413.67 826.947 3411.69 827.079 3409.99 825.553 3409.86 823.541 3409.85 823.461 3409.85 823.379 3409.85 823.297Z" fill="#5AA5AF" fill-rule="evenodd"/><path d="M3431 749C3430.85 748.654 3430.52 748.315 3430 748 3430.45 748.324 3430.78 748.659 3431 749Z" fill="#5AA5AF" fill-rule="evenodd"/><path d="M3410 853.174 3410 916.364C3410 918.375 3411.6 920.002 3413.57 920 3414.2 920 3414.82 919.831 3415.36 919.512L3425.79 913.252C3428.4 911.685 3430 908.825 3430 905.735L3430 842.655C3430.01 840.643 3428.42 839.007 3426.44 839 3425.81 838.998 3425.19 839.166 3424.64 839.488L3414.25 845.621C3411.62 847.188 3410 850.066 3410 853.174Z" fill="#72C6CC" fill-rule="evenodd"/><path d="M3430 844.002 3430 844.002C3430 844.002 3430 843.335 3430 843 3431.43 843.335 3431.43 843.667 3430 844.002Z" fill="#5AA5AF" fill-rule="evenodd"/><path d="M3409.85 916.358 3409.85 853.72C3409.85 850.635 3411.48 847.783 3414.14 846.233L3424.59 840.135C3425.64 839.524 3426.92 839.482 3428 840.027 3426.47 838.934 3424.5 838.697 3422.76 839.396L3412.29 845.493C3409.64 847.039 3408.01 849.883 3408 852.962L3408 915.564C3408 918.036 3411.25 920.381 3413.67 919.948 3411.69 920.078 3409.99 918.57 3409.86 916.582 3409.85 916.508 3409.85 916.432 3409.85 916.358Z" fill="#5AA5AF" fill-rule="evenodd"/><path d="M3431 843C3430.87 842.652 3430.53 842.315 3430 842 3430.47 842.322 3430.81 842.656 3431 843Z" fill="#5AA5AF" fill-rule="evenodd"/><path d="M3037 961.27 3037 976.93C3037.01 978.192 3037.7 979.352 3038.81 979.964L3313.62 1138.17C3316.62 1139.89 3320.45 1138.85 3322.17 1135.86 3322.71 1134.91 3323 1133.84 3323 1132.75L3323 1123.16C3323.03 1119.25 3320.95 1115.62 3317.57 1113.64L3044.9 956.7C3042.37 955.253 3039.15 956.122 3037.7 958.638 3037.24 959.438 3037 960.347 3037 961.27Z" fill="#FFFFFF" fill-rule="evenodd"/><path d="M3257.47 525 3211 560.676 3257.42 587 3304 551.431 3257.47 525Z" fill="#184954" fill-rule="evenodd"/><path d="M3211 561 3211 585.35C3210.99 602.029 3220.05 617.437 3234.76 625.741L3235.25 626.012C3242.52 630.121 3251.8 627.656 3255.98 620.501 3257.31 618.227 3258.01 615.647 3258 613.024L3258 587.734Z" fill="#123C42" fill-rule="evenodd"/><path d="M3303.96 551 3258 587.251 3303.93 614 3350 577.857 3303.96 551Z" fill="#5FF9F9" fill-rule="evenodd"/><path d="M3258 587 3258 611.727C3258 628.647 3266.87 644.275 3281.24 652.706L3281.73 652.981C3288.85 657.154 3297.93 654.65 3302.02 647.384 3303.32 645.075 3304.01 642.456 3304 639.792L3304 614.112Z" fill="#44D9E0" fill-rule="evenodd"/><path d="M3352.36 579 3306 615.252 3352.31 642 3397 607.254 3397 604.824 3352.36 579Z" fill="#123C42" fill-rule="evenodd"/><path d="M3306 615 3306 639.36C3305.99 656.03 3314.86 671.43 3329.24 679.73L3329.71 680.001C3336.82 684.122 3345.91 681.667 3350.01 674.516 3351.33 672.228 3352.01 669.632 3352 666.99L3352 641.691Z" fill="#0C2C33" fill-rule="evenodd"/><path d="M3350.45 578 3304 614.27 3350.42 641 3397 604.876 3350.45 578Z" fill="#184954" fill-rule="evenodd"/><path d="M3304 614 3304 638.363C3304.01 655.029 3312.87 670.421 3327.24 678.721L3327.73 679.011C3334.85 683.122 3343.93 680.656 3348.02 673.496 3349.33 671.216 3350.01 668.629 3350 665.998L3350 640.695Z" fill="#123C42" fill-rule="evenodd"/><path d="M2979.47 364 2933 400.269 2979.42 427 3026 390.876 2979.47 364Z" fill="#184954" fill-rule="evenodd"/><path d="M2933 400 2933 424.436C2933.02 441.072 2942.07 456.434 2956.73 464.74L2957.23 465.011C2964.5 469.123 2973.8 466.655 2977.98 459.497 2979.31 457.221 2980.01 454.641 2980 452.016L2980 426.713Z" fill="#123C42" fill-rule="evenodd"/><path d="M3211.47 498 3165 534.251 3211.42 561 3258 524.857 3211.47 498Z" fill="#5FF9F9" fill-rule="evenodd"/><path d="M3165 534 3165 558.363C3165 575.029 3173.86 590.426 3188.23 598.739L3188.72 599.011C3195.84 603.122 3204.93 600.656 3209.02 593.496 3210.32 591.221 3211.01 588.64 3211 586.016L3211 560.713Z" fill="#44D9E0" fill-rule="evenodd"/><path d="M3164.97 471 3119 507.269 3164.92 534 3211 497.876 3164.97 471Z" fill="#184954" fill-rule="evenodd"/><path d="M3119 507 3119 531.352C3119.01 548.022 3127.87 563.418 3142.24 571.721L3142.73 572.011C3149.85 576.124 3158.93 573.656 3163.02 566.495 3164.33 564.213 3165.01 561.626 3165 558.994L3165 533.684Z" fill="#123C42" fill-rule="evenodd"/><path d="M3118.47 444 3072 480.27 3118.42 507 3165 470.876 3118.47 444Z" fill="#5FF9F9" fill-rule="evenodd"/><path d="M3072 480 3072 504.363C3072 521.034 3081.06 536.433 3095.76 544.739L3096.23 545.011C3103.51 549.122 3112.8 546.656 3116.98 539.496 3118.31 537.221 3119.01 534.64 3119 532.016L3119 506.713Z" fill="#44D9E0" fill-rule="evenodd"/><path d="M3072.47 417 3026 453.251 3072.42 480 3119 443.857 3072.47 417Z" fill="#184954" fill-rule="evenodd"/><path d="M3026 454 3026 478.329C3026 495.01 3034.86 510.42 3049.24 518.738L3049.71 519.01C3056.83 523.125 3065.93 520.655 3070.02 513.492 3071.32 511.214 3072.01 508.631 3072 506.004L3072 480.68Z" fill="#123C42" fill-rule="evenodd"/><path d="M3025.97 391 2980 427.251 3025.92 454 3072 417.857 3025.97 391Z" fill="#5FF9F9" fill-rule="evenodd"/><path d="M2980 427 2980 451.39C2980.02 468.059 2988.89 483.445 3003.26 491.737L3003.73 492.009C3010.85 496.126 3019.93 493.655 3024.02 486.489 3025.31 484.232 3025.99 481.675 3026 479.072L3026 453.742Z" fill="#44D9E0" fill-rule="evenodd"/><path d="M3313 1122.39 3117.62 1234.49C3109.5 1239.17 3099.5 1239.17 3091.38 1234.49L2857.27 1098.44C2852.22 1095.52 2850.5 1089.05 2853.42 1084.01 2854.35 1082.41 2855.67 1081.09 2857.27 1080.16L3049.17 970Z" fill="#184954" fill-rule="evenodd"/><path d="M3222 1134.91 3194.65 1119 3088 1180.07 3115.39 1196 3222 1134.91Z" fill="#FFFFFF" fill-rule="evenodd"/><path d="M3054 1093.74 3035.82 1083 2965 1124.26 2983.18 1135 3054 1093.74Z" fill="#FFFFFF" fill-rule="evenodd"/><path d="M3144 1042.74 3125.84 1032 3055 1073.26 3073.18 1084 3144 1042.74Z" fill="#FFFFFF" fill-rule="evenodd"/><path d="M2969.78 1068.72C2957.22 1062.82 2950.14 1051.01 2954.1 1042.34 2958.07 1033.66 2971.54 1031.38 2984.17 1037.28 2996.8 1043.19 3003.9 1054.98 2999.87 1063.67 2995.83 1072.36 2982.34 1074.61 2969.78 1068.72Z" fill="#5FF9F9" fill-rule="evenodd"/><path d="M2964.59 1051.23C2977.34 1057.12 2984.44 1068.93 2980.43 1077.61 2976.42 1086.29 2962.83 1088.55 2950.07 1082.66 2937.31 1076.77 2930.22 1064.96 2934.23 1056.28 2938.24 1047.6 2951.83 1045.34 2964.59 1051.23Z" fill="#FF9E26" fill-rule="evenodd"/><path d="M3117.76 1234.22C3109.64 1238.9 3099.65 1238.9 3091.53 1234.22L2857.57 1098.08C2852.54 1095.14 2850.84 1088.67 2853.77 1083.63 2853.9 1083.42 2854.03 1083.2 2854.17 1083 2850.33 1087.89 2851.65 1100.89 2857.57 1104.34L3091.53 1240.49C3099.65 1245.17 3109.64 1245.17 3117.76 1240.49L3313 1128.34 3313 1122.06Z" fill="#72C6CC" fill-rule="evenodd"/><path d="M3179.13 626.956 3511.97 821.111C3518.8 825.069 3523 832.37 3523 840.273L3523 949.87C3523 962.097 3513.1 972.004 3500.89 972 3497 971.999 3493.18 970.97 3489.81 969.014L3195.04 797.214C3188.44 806.885 3183.33 814.47 3183.33 814.47L3170.65 782.552 3157.01 774.695C3150.2 770.736 3146 763.443 3146 755.552L3146 646.099C3146.02 633.873 3155.93 623.98 3168.14 624 3172 624.007 3175.79 625.027 3179.13 626.956Z" fill="#D9FFF6" fill-rule="evenodd"/><path d="M3522.92 949.877 3522.92 840.266C3522.92 832.363 3518.71 825.061 3511.87 821.102L3178.55 626.924C3173.87 624.159 3168.32 623.246 3163 624.366 3170.1 617.357 3181.02 615.982 3189.63 621.009L3522.97 815.187C3529.8 819.152 3534 826.452 3534 834.35L3534 943.961C3534 958.007 3516.64 972.162 3502.27 971.999 3513.89 971.198 3522.91 961.531 3522.92 949.877Z" fill="#72C6CC" fill-rule="evenodd"/><path d="M3183 730.788 3183 732.473C3183 734.896 3184.29 737.136 3186.39 738.344L3445.81 887.084C3449.05 888.965 3453.2 887.857 3455.09 884.61 3455.69 883.572 3456 882.394 3456 881.194L3456 879.509C3456 877.086 3454.71 874.846 3452.61 873.638L3193.2 724.917C3189.95 723.035 3185.8 724.143 3183.91 727.39 3183.32 728.423 3183 729.593 3183 730.788Z" fill="#72C6CC" fill-rule="evenodd"/><path d="M3183 691.752 3183 693.437C3183 695.86 3184.29 698.1 3186.39 699.309L3479.83 868.081C3483.06 869.962 3487.2 868.864 3489.08 865.629 3489.69 864.591 3490 863.411 3490 862.209L3490 860.524C3490 858.096 3488.71 855.852 3486.62 854.634L3193.19 685.917C3189.95 684.036 3185.79 685.143 3183.91 688.39 3183.32 689.412 3183.01 690.57 3183 691.752Z" fill="#72C6CC" fill-rule="evenodd"/><path d="M2798.16 590.982 3130.99 784.549C3137.81 788.496 3142.01 795.778 3142 803.653L3142 912.937C3142 925.126 3132.1 935.004 3119.9 935 3116 934.998 3112.18 933.973 3108.82 932.023L3070.78 911.4C3064.19 921.041 3059.08 928.604 3059.08 928.604L3046.4 896.782 2775.99 738.274C2769.18 734.325 2764.99 727.052 2765 719.188L2765 610.067C2764.99 597.888 2774.87 588.009 2787.07 588 2790.97 587.998 2794.79 589.028 2798.16 590.982Z" fill="#D9FFF6" fill-rule="evenodd"/><path d="M3141.95 912.957 3141.95 803.638C3141.96 795.761 3137.75 788.477 3130.92 784.529L2797.53 590.899C2792.85 588.147 2787.31 587.237 2782 588.348 2789.1 581.359 2800.02 579.987 2808.63 585L3142.11 778.629C3148.9 782.609 3153.05 789.889 3153 797.739L3153 907.058C3153 921.047 3135.64 935.161 3121.25 934.999 3132.89 934.237 3141.95 924.595 3141.95 912.957Z" fill="#72C6CC" fill-rule="evenodd"/><path d="M2802 693.751 2802 695.437C2802 697.861 2803.29 700.101 2805.39 701.31L3064.82 850.093C3068.07 851.966 3072.23 850.846 3074.09 847.592 3074.69 846.561 3075 845.391 3075 844.202L3075 842.517C3075 840.095 3073.71 837.858 3071.61 836.644L2812.1 687.878C2808.85 686.037 2804.72 687.186 2802.88 690.445 2802.31 691.455 2802.01 692.593 2802 693.751Z" fill="#72C6CC" fill-rule="evenodd"/><path d="M2802 655.751 2802 657.437C2802 659.86 2803.29 662.101 2805.38 663.31L3098.81 832.083C3102.05 833.965 3106.21 832.857 3108.09 829.609 3108.68 828.576 3109 827.405 3109 826.21L3109 824.525C3109 822.096 3107.71 819.852 3105.62 818.634L2812.1 649.878C2808.85 648.037 2804.71 649.186 2802.88 652.445 2802.31 653.454 2802.01 654.593 2802 655.751Z" fill="#72C6CC" fill-rule="evenodd"/><path d="M2700 1399C2700 1418.33 2669.33 1434 2631.5 1434 2593.67 1434 2563 1418.33 2563 1399 2563 1379.67 2593.67 1364 2631.5 1364 2669.33 1364 2700 1379.67 2700 1399Z" fill="#24686B" fill-rule="evenodd"/><path d="M2630.32 1220.64C2595.38 1220.64 2566.58 1208.43 2562.49 1192.67 2562.31 1192.46 2562.15 1192.23 2562 1192L2595.8 1408.66C2595.8 1408.66 2607.64 1419 2630.15 1419 2652.67 1419 2663.93 1408.66 2663.93 1408.66L2698 1192.96C2693.73 1208.58 2665.05 1220.64 2630.32 1220.64Z" fill="#091947" fill-rule="evenodd"/><path d="M2630.13 1316C2649.98 1316 2667.86 1312.09 2680.37 1305.85L2684 1283.41C2671.45 1290.63 2652.1 1295.37 2630.4 1295.37 2608.28 1295.37 2588.69 1290.52 2576 1283L2579.63 1305.7C2592.12 1312.12 2610.13 1316 2630.13 1316Z" fill="#FFFFFF" fill-rule="evenodd"/><path d="M2630.15 1330.87C2611.4 1330.87 2594.4 1327.46 2582 1322L2583.71 1332.75C2595.98 1337.88 2612.36 1341 2630.36 1341 2647.97 1341 2664.02 1338 2676.18 1333.09L2678 1322.16C2665.59 1327.54 2648.73 1330.87 2630.15 1330.87Z" fill="#FFFFFF" fill-rule="evenodd"/><path d="M2699 1190.5C2699 1207.9 2668.33 1222 2630.5 1222 2592.67 1222 2562 1207.9 2562 1190.5 2562 1173.1 2592.67 1159 2630.5 1159 2668.33 1159 2699 1173.1 2699 1190.5Z" fill="#24686B" fill-rule="evenodd"/><path d="M2688 1189C2688 1202.81 2662.48 1214 2631 1214 2599.52 1214 2574 1202.81 2574 1189 2574 1175.19 2599.52 1164 2631 1164 2662.48 1164 2688 1175.19 2688 1189Z" fill="#FFFFFF" fill-rule="evenodd"/><path d="M2679 1145.59C2679 1145.59 2714.25 1172.78 2775.16 1134.71 2782.26 1130.15 2790.14 1126.95 2798.42 1125.27 2815.36 1121.99 2818.44 1098.98 2802.88 1091.66 2778.36 1080.14 2748.61 1076.77 2715.09 1093.65 2715.09 1093.58 2680.6 1110.27 2679 1145.59Z" fill="#12A4AA" fill-rule="evenodd"/><path d="M2602 1164.35C2602.14 1169.51 2598.69 1174.06 2593.72 1175.28 2579.76 1178.72 2548.33 1180.47 2509.46 1145.03 2496.52 1133.23 2483.08 1128.46 2470.35 1127.82 2464.31 1127.49 2459.69 1122.28 2460.02 1116.2 2460.23 1112.31 2462.45 1108.82 2465.87 1107.02 2496.58 1091.54 2535.76 1085.16 2575.28 1114.92 2575.28 1114.87 2601.36 1133.9 2602 1164.35Z" fill="#12A4AA" fill-rule="evenodd"/><path d="M2644.26 1130C2644.26 1130 2684.86 1128.88 2714.54 1064.07 2721 1049.92 2734.04 1039.56 2747.84 1032.14 2762.35 1024.33 2756.2 1002.54 2739.66 1003.01 2711.88 1003.78 2679.11 1015.6 2653.97 1056.99 2653.97 1056.94 2630.66 1099.55 2644.26 1130Z" fill="#12A4AA" fill-rule="evenodd"/><path d="M2608.93 1105.1C2608.54 1111.5 2602.98 1116.37 2596.53 1115.98 2595.75 1115.93 2594.97 1115.81 2594.22 1115.61 2579.44 1111.79 2553.92 1099.41 2529.98 1059.31 2519.6 1041.91 2498.93 1032.12 2480.41 1026.65 2474.19 1024.82 2470.64 1018.34 2472.49 1012.18 2473.68 1008.2 2476.92 1005.16 2480.99 1004.18 2510.63 996.983 2552.89 998.656 2588.84 1045.35 2589.02 1045.56 2589.19 1045.79 2589.33 1046.03 2591.77 1049.63 2610.29 1078.08 2608.93 1105.1Z" fill="#12A4AA" fill-rule="evenodd"/><path d="M2615.87 1092.43C2621.2 1098.22 2630.18 1098.55 2635.93 1093.18 2636.75 1092.42 2637.48 1091.55 2638.1 1090.61 2649.06 1073.87 2662.47 1041.32 2643.41 997.37 2636.26 981.078 2630.91 964.04 2627.47 946.565 2624.59 931.451 2603.3 931.034 2599.79 946.003 2597.21 957.017 2594.71 970.171 2592.46 985.921 2588.55 1013.14 2588.53 1039.95 2598.18 1065.76 2601.66 1074.97 2608.67 1084.64 2615.87 1092.43Z" fill="#12A4AA" fill-rule="evenodd"/><path d="M2645.96 1213.88C2651.38 1180 2672.81 1149.44 2701.89 1131.66 2710.02 1126.67 2718.76 1122.75 2727.89 1119.99 2728.7 1119.77 2729.17 1118.93 2728.94 1118.12 2728.72 1117.31 2727.88 1116.83 2727.08 1117.06 2693.65 1127.04 2665.57 1152.95 2651.45 1184.84 2647.44 1193.85 2644.61 1203.34 2643.02 1213.08 2642.72 1215 2645.64 1215.84 2645.96 1213.9Z" fill="#24686B" fill-rule="evenodd"/><path d="M2619 1214.05C2613.76 1181.88 2593.16 1152.89 2565.09 1136.1 2557.17 1131.37 2548.68 1127.64 2539.81 1125.02 2538.96 1124.88 2538.16 1125.45 2538.02 1126.28 2537.9 1127 2538.3 1127.7 2538.99 1127.97 2569.83 1137 2595.6 1160.34 2608.39 1189.42 2612 1197.56 2614.55 1206.12 2615.97 1214.9 2616.3 1216.83 2619.26 1216 2618.95 1214.09Z" fill="#24686B" fill-rule="evenodd"/><path d="M2641.25 1214.58C2638.49 1185.92 2640.37 1157 2646.81 1128.94 2652.66 1103.65 2663.2 1079.67 2677.9 1058.26 2686.07 1046.54 2695.68 1035.89 2706.5 1026.56 2707.99 1025.27 2705.81 1023.12 2704.33 1024.39 2685.07 1041.25 2669.56 1061.96 2658.8 1085.17 2647.2 1110.28 2640.13 1137.24 2637.95 1164.81 2636.6 1181.36 2636.69 1197.99 2638.2 1214.53 2638.36 1216.48 2641.43 1216.5 2641.25 1214.53Z" fill="#24686B" fill-rule="evenodd"/><path d="M2623.06 1214.53C2624.31 1202.12 2624.31 1189.61 2623.06 1177.2 2621.59 1166.02 2619.17 1154.99 2615.85 1144.22 2612.38 1131.51 2608.08 1119.05 2602.97 1106.92 2597.86 1095.19 2591.62 1084 2584.34 1073.5 2576.13 1061.64 2566.49 1050.85 2555.64 1041.39 2554.16 1040.12 2552.03 1042.26 2553.49 1043.55 2572.44 1060.28 2587.7 1080.84 2598.28 1103.88 2603.6 1115.73 2608.04 1127.96 2611.57 1140.46 2615.03 1151.33 2617.68 1162.45 2619.51 1173.71 2621.19 1187.26 2621.32 1200.95 2619.9 1214.53 2619.74 1216.49 2622.79 1216.49 2622.95 1214.53Z" fill="#24686B" fill-rule="evenodd"/><path d="M2621.01 1019.46C2627.72 1069.91 2630.05 1120.78 2627.98 1171.57 2627.4 1185.91 2626.46 1200.23 2625.16 1214.53 2624.99 1216.49 2628.27 1216.49 2628.45 1214.53 2633.01 1163.88 2633.18 1112.97 2628.96 1062.3 2627.75 1047.99 2626.2 1033.71 2624.3 1019.46 2624.05 1017.52 2620.76 1017.5 2621.01 1019.46Z" fill="#24686B" fill-rule="evenodd"/><path d="M2752 1619C2752 1652.14 2700.29 1679 2636.5 1679 2572.71 1679 2521 1652.14 2521 1619 2521 1585.86 2572.71 1559 2636.5 1559 2700.29 1559 2752 1585.86 2752 1619Z" fill="#17A7AE" fill-rule="evenodd"/><path d="M2524 1673.5C2524 1708.57 2468.71 1737 2400.5 1737 2332.29 1737 2277 1708.57 2277 1673.5 2277 1638.43 2332.29 1610 2400.5 1610 2468.71 1610 2524 1638.43 2524 1673.5Z" fill="#17A7AE" fill-rule="evenodd"/><path d="M2739 1549.5C2739 1583.47 2691.09 1611 2632 1611 2572.91 1611 2525 1583.47 2525 1549.5 2525 1515.53 2572.91 1488 2632 1488 2691.09 1488 2739 1515.53 2739 1549.5Z" fill="#1F878C" fill-rule="evenodd"/><path d="M2526 1549 2526 1549 2526 1550C2523.73 1549.67 2526 1549.33 2526 1549Z" fill="#38AAB0" fill-rule="evenodd"/><path d="M2740 1549 2740 1548 2740 1548C2737.73 1548.33 2740 1548.67 2740 1549Z" fill="#38AAB0" fill-rule="evenodd"/><path d="M2739 1549.31C2738.58 1583.15 2690.85 1610.52 2632.01 1610.52 2573.17 1610.52 2525.13 1582.99 2525 1549L2525 1578.33C2525 1612.39 2572.92 1640 2632.01 1640 2691.1 1640 2739 1612.39 2739 1578.33Z" fill="#24676A" fill-rule="evenodd"/><path d="M2711 1552C2711 1575.75 2675.63 1595 2632 1595 2588.37 1595 2553 1575.75 2553 1552 2553 1528.25 2588.37 1509 2632 1509 2675.63 1509 2711 1528.25 2711 1552Z" fill="#24676A" fill-rule="evenodd"/><path d="M2632 1508.9C2674.93 1508.9 2709.84 1527.61 2711 1550.95 2711 1550.53 2711 1550.11 2711 1549.69 2711 1524.46 2675.62 1504 2631.96 1504 2588.31 1504 2553 1524.46 2553 1549.74 2553 1550.16 2553 1550.58 2553 1551 2554.14 1527.61 2589.07 1508.9 2632 1508.9Z" fill="#24676A" fill-rule="evenodd"/><path d="M2532 1600 2532 1570.51C2529.26 1566.66 2527.24 1562.44 2526 1558L2526 1587.49C2527.24 1591.93 2529.26 1596.16 2532 1600Z" fill="#1F878C" fill-rule="evenodd"/><path d="M2543 1612 2543 1582.38C2540.89 1580.7 2538.88 1578.9 2537 1577L2537 1606.64C2538.88 1608.54 2540.88 1610.33 2543 1612Z" fill="#1F878C" fill-rule="evenodd"/><path d="M2553 1620 2553 1590.64C2551.33 1589.45 2549.67 1588.24 2548 1587L2548 1616.36C2549.63 1617.66 2551.28 1618.89 2553 1620Z" fill="#1F878C" fill-rule="evenodd"/><path d="M2564 1626 2564 1596.73C2562.33 1595.84 2560.67 1594.92 2559 1594L2559 1623.27C2560.58 1624.21 2562.25 1625.13 2564 1626Z" fill="#1F878C" fill-rule="evenodd"/><path d="M2575 1630 2575 1601.07C2573 1600.41 2571 1599.72 2569 1599L2569 1627.93C2571 1628.61 2573 1629.34 2575 1630Z" fill="#1F878C" fill-rule="evenodd"/><path d="M2586 1634 2586 1604.62C2584 1604.11 2582 1603.56 2580 1603L2580 1632.38C2582.12 1632.95 2583.98 1633.49 2586 1634Z" fill="#1F878C" fill-rule="evenodd"/><path d="M2596 1636 2596 1607.18C2594.33 1606.8 2592.67 1606.41 2591 1606L2591 1634.82C2592.68 1635.25 2594.33 1635.64 2596 1636Z" fill="#1F878C" fill-rule="evenodd"/><path d="M2607 1638 2607 1608.83C2605.33 1608.58 2603.67 1608.31 2602 1608L2602 1637.28C2603.68 1637.48 2605.33 1637.77 2607 1638Z" fill="#1F878C" fill-rule="evenodd"/><path d="M2618 1639 2618 1610.49C2616.33 1610.35 2614.67 1610.19 2613 1610L2613 1638.52C2614.7 1638.7 2616.35 1638.86 2618 1639Z" fill="#1F878C" fill-rule="evenodd"/><path d="M2629 1640 2629 1610.17C2627 1610.17 2625 1610.07 2623 1610L2623 1639.91C2625.02 1639.91 2627 1639.91 2629 1640Z" fill="#1F878C" fill-rule="evenodd"/><path d="M2639 1639.89 2639 1610C2637.33 1610 2635.67 1610.11 2634 1610.13L2634 1640C2635.72 1639.98 2637.37 1639.89 2639 1639.89Z" fill="#1F878C" fill-rule="evenodd"/><path d="M2650 1638.56 2650 1610C2648.33 1610.18 2646.67 1610.32 2645 1610.44L2645 1639C2646.72 1638.88 2648.37 1638.74 2650 1638.56Z" fill="#1F878C" fill-rule="evenodd"/><path d="M2661 1637.22 2661 1608C2659.33 1608.29 2657.67 1608.54 2656 1608.78L2656 1638C2657.72 1637.77 2659.37 1637.58 2661 1637.22Z" fill="#1F878C" fill-rule="evenodd"/><path d="M2672 1635.84 2672 1606C2670 1606.41 2668 1606.79 2666 1607.16L2666 1637C2668.08 1636.65 2670.06 1636.24 2672 1635.84Z" fill="#1F878C" fill-rule="evenodd"/><path d="M2683 1632.38 2683 1603C2681 1603.56 2679 1604.07 2677 1604.56L2677 1634C2679.08 1633.51 2681.06 1633 2683 1632.38Z" fill="#1F878C" fill-rule="evenodd"/><path d="M2693 1628.95 2693 1599C2691.33 1599.72 2689.75 1600.42 2688 1601.09L2688 1631C2689.75 1630.35 2691.4 1629.67 2693 1628.95Z" fill="#1F878C" fill-rule="evenodd"/><path d="M2704 1623.43 2704 1595C2702.33 1595.88 2700.67 1596.76 2699 1597.57L2699 1626C2700.75 1625.17 2702.4 1624.31 2704 1623.43Z" fill="#1F878C" fill-rule="evenodd"/><path d="M2715 1617.47 2715 1588C2713.12 1589.22 2711.14 1590.4 2709 1591.53L2709 1621C2711.14 1619.87 2713.12 1618.69 2715 1617.47Z" fill="#1F878C" fill-rule="evenodd"/><path d="M2726 1608.01 2726 1579C2724.1 1580.75 2722.09 1582.41 2720 1583.97L2720 1613C2722.18 1611.39 2724.16 1609.72 2726 1608.01Z" fill="#1F878C" fill-rule="evenodd"/><path d="M2736 1591.77 2736 1562C2734.74 1565.63 2733.06 1569.07 2731 1572.23L2731 1602C2733.06 1598.84 2734.74 1595.4 2736 1591.77Z" fill="#1F878C" fill-rule="evenodd"/><path d="M2507 1626.5C2507 1660.47 2459.32 1688 2400.5 1688 2341.68 1688 2294 1660.47 2294 1626.5 2294 1592.53 2341.68 1565 2400.5 1565 2459.32 1565 2507 1592.53 2507 1626.5Z" fill="#14A2A7" fill-rule="evenodd"/><path d="M2506.98 1627.31C2506.57 1661.18 2459.05 1688.55 2400.49 1688.55 2341.93 1688.55 2294.13 1661.01 2294 1627L2294 1656.32C2294 1690.39 2341.68 1718 2400.49 1718 2459.31 1718 2507 1690.39 2507 1656.32 2507 1645.66 2506.98 1631.62 2506.98 1627.31Z" fill="#24676A" fill-rule="evenodd"/><path d="M2480 1629C2480 1652.75 2444.63 1672 2401 1672 2357.37 1672 2322 1652.75 2322 1629 2322 1605.25 2357.37 1586 2401 1586 2444.63 1586 2480 1605.25 2480 1629Z" fill="#24676A" fill-rule="evenodd"/><path d="M2442.23 1646.37 2432.5 1651.99 2426.83 1648.73C2426.83 1648.73 2409.39 1656.14 2404.01 1657L2387.81 1647.49C2387.81 1647.49 2418.98 1641.26 2422.17 1634.63 2425.35 1628 2408.8 1631.03 2404.44 1632.12 2393.84 1634.56 2373.58 1643.27 2361.48 1630.18 2352.48 1620.54 2362.87 1610.47 2362.87 1610.47L2357 1607.41 2366.23 1602.31 2371.79 1605.38C2379.25 1600.78 2387.64 1597.92 2396.34 1597L2410.74 1604.96C2410.74 1604.96 2370.93 1612.54 2378.16 1620.69 2378.16 1620.69 2382.77 1624.65 2395.77 1619.61 2408.02 1616.42 2429.06 1609.79 2441.59 1624.15 2444.36 1627.9 2444.78 1632.9 2442.67 1637.06 2441.49 1639.69 2439.39 1641.8 2436.76 1642.99Z" fill="#24676A" fill-rule="evenodd"/><path d="M2401.01 1585.88C2443.93 1585.88 2478.95 1604.64 2480 1628 2480 1627.58 2480 1627.16 2480 1626.74 2480 1601.48 2444.62 1581 2400.97 1581 2357.33 1581 2322 1601.58 2322 1626.74 2322 1627.16 2322 1627.58 2322 1628 2323.18 1604.64 2358.11 1585.88 2401.01 1585.88Z" fill="#24676A" fill-rule="evenodd"/><path d="M2300 1677 2300 1647.51C2297.72 1643.67 2296.03 1639.44 2295 1635L2295 1664.49C2296.03 1668.93 2297.72 1673.16 2300 1677Z" fill="#14A2A7" fill-rule="evenodd"/><path d="M2311 1690 2311 1660.38C2309.24 1658.69 2307.57 1656.89 2306 1655L2306 1684.62C2307.57 1686.51 2309.24 1688.31 2311 1690Z" fill="#14A2A7" fill-rule="evenodd"/><path d="M2322 1698 2322 1668.63C2320.33 1667.45 2318.67 1666.23 2317 1665L2317 1694.37C2318.63 1695.6 2320.28 1696.82 2322 1698Z" fill="#14A2A7" fill-rule="evenodd"/><path d="M2333 1703 2333 1673.76C2331 1672.87 2329 1671.94 2327 1671L2327 1700.35C2328.98 1701.21 2330.96 1702.11 2333 1703Z" fill="#14A2A7" fill-rule="evenodd"/><path d="M2344 1708 2344 1679.07C2342 1678.41 2340 1677.73 2338 1677L2338 1705.93C2340 1706.64 2341.98 1707.34 2344 1708Z" fill="#14A2A7" fill-rule="evenodd"/><path d="M2354 1711 2354 1681.6C2352.33 1681.09 2350.67 1680.56 2349 1680L2349 1709.38C2350.68 1710.04 2352.33 1710.49 2354 1711Z" fill="#14A2A7" fill-rule="evenodd"/><path d="M2365 1714 2365 1685.16C2363.33 1684.8 2361.67 1684.41 2360 1684L2360 1712.76C2361.67 1713.17 2363.33 1713.59 2365 1714Z" fill="#14A2A7" fill-rule="evenodd"/><path d="M2376 1716 2376 1686.83C2374 1686.58 2372 1686.31 2370 1686L2370 1715.12C2372.04 1715.42 2374 1715.69 2376 1716Z" fill="#14A2A7" fill-rule="evenodd"/><path d="M2387 1717 2387 1687.49C2385 1687.35 2383 1687.18 2381 1687L2381 1716.51C2383.04 1716.71 2385.04 1716.88 2387 1717Z" fill="#14A2A7" fill-rule="evenodd"/><path d="M2397 1717 2397 1688.18C2395.33 1688.18 2393.67 1688.09 2392 1688L2392 1716.84C2393.67 1716.91 2395.33 1716.96 2397 1717Z" fill="#14A2A7" fill-rule="evenodd"/><path d="M2408 1716.88 2408 1688C2406.33 1688 2404.67 1688.11 2403 1688.12L2403 1717C2404.8 1716.98 2406.35 1716.95 2408 1716.88Z" fill="#14A2A7" fill-rule="evenodd"/><path d="M2419 1716.54 2419 1687C2417 1687.16 2415 1687.33 2413 1687.44L2413 1717C2415.06 1716.87 2417.04 1716.73 2419 1716.54Z" fill="#14A2A7" fill-rule="evenodd"/><path d="M2430 1715.22 2430 1686C2428 1686.27 2426 1686.54 2424 1686.78L2424 1716C2426.06 1715.77 2428.04 1715.51 2430 1715.22Z" fill="#14A2A7" fill-rule="evenodd"/><path d="M2440 1712.86 2440 1684C2438.33 1684.41 2436.67 1684.78 2435 1685.12L2435 1714C2436.73 1713.64 2438.37 1713.27 2440 1712.86Z" fill="#14A2A7" fill-rule="evenodd"/><path d="M2451 1710.44 2451 1681C2449.33 1681.55 2447.67 1682.07 2446 1682.56L2446 1712C2447.73 1711.51 2449.38 1711 2451 1710.44Z" fill="#14A2A7" fill-rule="evenodd"/><path d="M2462 1705.98 2462 1677C2460.33 1677.7 2458.67 1678.36 2457 1679L2457 1708C2458.73 1707.36 2460.38 1706.68 2462 1705.98Z" fill="#14A2A7" fill-rule="evenodd"/><path d="M2473 1701.33 2473 1672C2471 1672.93 2469.12 1673.81 2467 1674.65L2467 1704C2469.12 1703.15 2471.08 1702.28 2473 1701.33Z" fill="#14A2A7" fill-rule="evenodd"/><path d="M2483 1694.57 2483 1666C2481.33 1667.17 2479.77 1668.31 2478 1669.43L2478 1698C2479.77 1696.89 2481.42 1695.74 2483 1694.57Z" fill="#14A2A7" fill-rule="evenodd"/><path d="M2494 1685.87 2494 1656C2492.42 1657.81 2490.75 1659.52 2489 1661.13L2489 1691C2490.75 1689.4 2492.42 1687.68 2494 1685.87Z" fill="#14A2A7" fill-rule="evenodd"/><path d="M2505 1669.03 2505 1640C2503.74 1643.54 2502.06 1646.9 2500 1649.97L2500 1679C2502.06 1675.92 2503.74 1672.57 2505 1669.03Z" fill="#14A2A7" fill-rule="evenodd"/><path d="M2521 1572.5C2521 1606.47 2473.32 1634 2414.5 1634 2355.68 1634 2308 1606.47 2308 1572.5 2308 1538.53 2355.68 1511 2414.5 1511 2473.32 1511 2521 1538.53 2521 1572.5Z" fill="#27999E" fill-rule="evenodd"/><path d="M2521 1572 2521 1571 2521 1571C2522.39 1571.33 2522.39 1571.67 2521 1572Z" fill="#77B7B4" fill-rule="evenodd"/><path d="M2520.98 1572.36C2520.57 1606.2 2473.05 1633.56 2414.49 1633.56 2355.93 1633.56 2308.13 1606 2308 1572L2308 1601.35C2308 1635.4 2355.68 1663 2414.49 1663 2473.31 1663 2521 1635.4 2521 1601.35 2521 1590.65 2520.98 1576.62 2520.98 1572.36Z" fill="#21676A" fill-rule="evenodd"/><path d="M2493 1575C2493 1598.75 2457.63 1618 2414 1618 2370.37 1618 2335 1598.75 2335 1575 2335 1551.25 2370.37 1532 2414 1532 2457.63 1532 2493 1551.25 2493 1575Z" fill="#21676A" fill-rule="evenodd"/><path d="M2456.25 1592.21 2446.35 1597.91 2440.64 1594.6C2440.64 1594.6 2422.99 1602.12 2417.57 1603L2401.08 1593.36C2401.08 1593.36 2432.61 1587.01 2435.84 1580.29 2439.06 1573.58 2422.32 1576.64 2417.91 1577.73 2407.19 1580.22 2386.7 1589.08 2374.46 1575.78 2365.45 1565.97 2375.88 1555.65 2375.88 1555.65L2370 1552.58 2379.33 1547.4 2384.98 1550.53C2392.51 1545.85 2400.99 1542.93 2409.8 1542L2424.35 1550.09C2424.35 1550.09 2384.1 1557.79 2391.42 1566.06 2391.42 1566.06 2396.09 1570.08 2409.23 1564.96 2421.62 1561.72 2442.88 1554.99 2455.56 1569.57 2458.36 1573.39 2458.78 1578.46 2456.65 1582.69 2455.46 1585.36 2453.34 1587.51 2450.68 1588.71Z" fill="#27999E" fill-rule="evenodd"/><path d="M2414.04 1531.88C2456.94 1531.88 2491.95 1550.64 2493 1574 2493 1573.58 2493 1573.16 2493 1572.74 2493 1547.48 2457.63 1527 2414 1527 2370.37 1527 2335 1547.48 2335 1572.74 2335 1573.16 2335 1573.58 2335 1574 2336.21 1550.64 2371.13 1531.88 2414.04 1531.88Z" fill="#276900" fill-rule="evenodd"/><path d="M2314 1623 2314 1593.51C2311.72 1589.66 2310.03 1585.44 2309 1581L2309 1610.49C2310.03 1614.93 2311.72 1619.16 2314 1623Z" fill="#27999E" fill-rule="evenodd"/><path d="M2325 1635 2325 1605.38C2322.89 1603.7 2320.88 1601.9 2319 1600L2319 1629.64C2320.89 1631.53 2322.89 1633.32 2325 1635Z" fill="#27999E" fill-rule="evenodd"/><path d="M2335 1643 2335 1613.63C2333.33 1612.45 2331.67 1611.23 2330 1610L2330 1639.37C2331.63 1640.6 2333.27 1641.82 2335 1643Z" fill="#27999E" fill-rule="evenodd"/><path d="M2346 1649 2346 1619.75C2344.33 1618.86 2342.67 1617.94 2341 1617L2341 1646.27C2342.67 1647.21 2344.3 1648.11 2346 1649Z" fill="#27999E" fill-rule="evenodd"/><path d="M2357 1653 2357 1624.09C2355.31 1623.43 2353.64 1622.74 2352 1622L2352 1650.93C2353.67 1651.64 2355.32 1652.34 2357 1653Z" fill="#27999E" fill-rule="evenodd"/><path d="M2368 1657 2368 1627.62C2366 1627.11 2364 1626.56 2362 1626L2362 1655.38C2364.02 1655.95 2366 1656.49 2368 1657Z" fill="#27999E" fill-rule="evenodd"/><path d="M2379 1660 2379 1630.2C2377 1629.83 2375 1629.42 2373 1629L2373 1658.78C2375.02 1659.23 2376.98 1659.61 2379 1660Z" fill="#27999E" fill-rule="evenodd"/><path d="M2389 1661 2389 1631.83C2387.33 1631.58 2385.67 1631.31 2384 1631L2384 1660.19C2385.68 1660.48 2387.33 1660.75 2389 1661Z" fill="#27999E" fill-rule="evenodd"/><path d="M2400 1663 2400 1633.49C2398.33 1633.36 2396.67 1633.2 2395 1633L2395 1662.51C2396.7 1662.69 2398.35 1662.85 2400 1663Z" fill="#27999E" fill-rule="evenodd"/><path d="M2411 1663 2411 1634.16C2409 1634.16 2407 1634.16 2405 1634L2405 1662.84C2407.04 1662.91 2409 1662.98 2411 1663Z" fill="#27999E" fill-rule="evenodd"/><path d="M2422 1662.88 2422 1634C2420 1634 2418 1634.11 2416 1634.12L2416 1663C2418.06 1662.98 2420.04 1662.95 2422 1662.88Z" fill="#27999E" fill-rule="evenodd"/><path d="M2432 1662.54 2432 1633C2430.33 1633.16 2428.67 1633.33 2427 1633.46L2427 1663C2428.72 1662.87 2430.37 1662.73 2432 1662.54Z" fill="#27999E" fill-rule="evenodd"/><path d="M2443 1661.18 2443 1631C2441.33 1631.3 2439.67 1631.56 2438 1631.8L2438 1662C2439.73 1661.74 2441.37 1661.48 2443 1661.18Z" fill="#27999E" fill-rule="evenodd"/><path d="M2454 1658.89 2454 1629C2452 1629.42 2450 1629.81 2448 1630.18L2448 1660C2450.04 1659.67 2452.04 1659.3 2454 1658.89Z" fill="#27999E" fill-rule="evenodd"/><path d="M2465 1655.45 2465 1626C2463 1626.55 2461 1627.07 2459 1627.56L2459 1657C2461.08 1656.51 2463.06 1656 2465 1655.45Z" fill="#27999E" fill-rule="evenodd"/><path d="M2476 1651.98 2476 1623C2474 1623.7 2472 1624.38 2470 1625L2470 1654C2472.08 1653.36 2474.06 1652.62 2476 1651.98Z" fill="#27999E" fill-rule="evenodd"/><path d="M2486 1647.33 2486 1618C2484.33 1618.92 2482.67 1619.81 2481 1620.65L2481 1650C2482.78 1649.15 2484.43 1648.26 2486 1647.33Z" fill="#27999E" fill-rule="evenodd"/><path d="M2497 1640.47 2497 1611C2495.42 1612.22 2493.77 1613.39 2492 1614.53L2492 1644C2493.67 1642.85 2495.33 1641.72 2497 1640.47Z" fill="#27999E" fill-rule="evenodd"/><path d="M2508 1631.05 2508 1602C2506.11 1603.76 2504.1 1605.43 2502 1606.99L2502 1636C2504.1 1634.45 2506.11 1632.8 2508 1631.05Z" fill="#27999E" fill-rule="evenodd"/><path d="M2518 1614.77 2518 1585C2516.74 1588.63 2515.06 1592.06 2513 1595.21L2513 1625C2515.06 1621.84 2516.74 1618.4 2518 1614.77Z" fill="#27999E" fill-rule="evenodd"/><path d="M2485 1526.5C2485 1560.47 2437.32 1588 2378.5 1588 2319.68 1588 2272 1560.47 2272 1526.5 2272 1492.53 2319.68 1465 2378.5 1465 2437.32 1465 2485 1492.53 2485 1526.5Z" fill="#27999E" fill-rule="evenodd"/><path d="M2273 1526 2273 1526 2273 1527C2270.73 1526.56 2273 1526 2273 1526Z" fill="#77B7B4" fill-rule="evenodd"/><path d="M2484.98 1526.31C2484.57 1560.15 2437.05 1587.52 2378.51 1587.52 2319.97 1587.52 2272.13 1559.99 2272 1526L2272 1555.33C2272 1589.39 2319.68 1617 2378.51 1617 2437.34 1617 2485 1589.39 2485 1555.33 2485 1544.66 2485 1530.6 2484.98 1526.31Z" fill="#21676A" fill-rule="evenodd"/><path d="M2458 1529C2458 1552.75 2422.63 1572 2379 1572 2335.37 1572 2300 1552.75 2300 1529 2300 1505.25 2335.37 1486 2379 1486 2422.63 1486 2458 1505.25 2458 1529Z" fill="#21676A" fill-rule="evenodd"/><path d="M2378.5 1485.8C2421.14 1485.8 2455.85 1504.13 2457 1527 2457 1526.59 2457 1526.18 2457 1525.77 2457 1501.05 2421.84 1481 2378.48 1481 2335.13 1481 2300 1501.05 2300 1525.77 2300 1526.18 2300 1526.59 2300 1527 2301.13 1504.13 2335.85 1485.8 2378.5 1485.8Z" fill="#21676A" fill-rule="evenodd"/><path d="M2277 1575 2277 1544.8C2274.71 1540.87 2273.02 1536.54 2272 1532L2272 1562.18C2273.02 1566.73 2274.71 1571.06 2277 1575Z" fill="#27999E" fill-rule="evenodd"/><path d="M2290 1589 2290 1559.3C2287.89 1557.64 2285.89 1555.87 2284 1554L2284 1583.68C2285.89 1585.55 2287.89 1587.33 2290 1589Z" fill="#27999E" fill-rule="evenodd"/><path d="M2300 1597 2300 1566.76C2297.9 1565.56 2295.91 1564.3 2294 1563L2294 1593.24C2295.93 1594.62 2297.92 1595.79 2300 1597Z" fill="#27999E" fill-rule="evenodd"/><path d="M2310 1603 2310 1572.82C2308.37 1571.92 2306.61 1571.02 2305 1570L2305 1600.11C2306.61 1601.17 2308.29 1602.1 2310 1603Z" fill="#27999E" fill-rule="evenodd"/><path d="M2322 1608 2322 1577.22C2320.3 1576.5 2318.62 1575.77 2317 1575L2317 1605.8C2318.62 1606.57 2320.3 1607.3 2322 1608Z" fill="#27999E" fill-rule="evenodd"/><path d="M2332 1611 2332 1581.61C2330.33 1581.1 2328.67 1580.56 2327 1580L2327 1609.3C2328.67 1609.86 2330.32 1610.4 2332 1611Z" fill="#27999E" fill-rule="evenodd"/><path d="M2343 1613 2343 1584.18C2341 1583.8 2339 1583.41 2337 1583L2337 1611.82C2339.02 1612.32 2341 1612.64 2343 1613Z" fill="#27999E" fill-rule="evenodd"/><path d="M2354 1615 2354 1585.81C2352 1585.56 2350 1585.29 2348 1585L2348 1614.19C2350.02 1614.48 2352 1614.77 2354 1615Z" fill="#27999E" fill-rule="evenodd"/><path d="M2364 1616 2364 1587.49C2362.33 1587.35 2360.67 1587.19 2359 1587L2359 1615.58C2360.7 1615.75 2362.33 1616 2364 1616Z" fill="#27999E" fill-rule="evenodd"/><path d="M2375 1617 2375 1587.17C2373.33 1587.17 2371.67 1587.17 2370 1587L2370 1616.82C2371.7 1616.91 2373.35 1616.96 2375 1617Z" fill="#27999E" fill-rule="evenodd"/><path d="M2386 1616.85 2386 1587C2384 1587 2382 1587.11 2380 1587.13L2380 1617C2382.06 1616.98 2384.04 1616.93 2386 1616.85Z" fill="#27999E" fill-rule="evenodd"/><path d="M2397 1615.56 2397 1587C2395 1587.18 2393 1587.32 2391 1587.44L2391 1616C2393.06 1615.86 2395.04 1615.74 2397 1615.56Z" fill="#27999E" fill-rule="evenodd"/><path d="M2407 1614.22 2407 1585C2405.33 1585.29 2403.67 1585.54 2402 1585.78L2402 1615C2403.72 1614.78 2405.37 1614.51 2407 1614.22Z" fill="#27999E" fill-rule="evenodd"/><path d="M2418 1612.84 2418 1583C2416.33 1583.41 2414.67 1583.79 2413 1584.16L2413 1614C2414.73 1613.65 2416.38 1613.24 2418 1612.84Z" fill="#27999E" fill-rule="evenodd"/><path d="M2429 1609.45 2429 1580C2427.33 1580.55 2425.67 1581.06 2424 1581.55L2424 1611C2425.73 1610.51 2427.38 1610 2429 1609.45Z" fill="#27999E" fill-rule="evenodd"/><path d="M2440 1605.84 2440 1576C2438.33 1576.72 2436.67 1577.42 2435 1578.09L2435 1608C2436.75 1607.24 2438.4 1606.56 2440 1605.84Z" fill="#27999E" fill-rule="evenodd"/><path d="M2451 1600.35 2451 1571C2449 1571.91 2447 1572.81 2445 1573.65L2445 1603C2447.1 1602.15 2449.08 1601.26 2451 1600.35Z" fill="#27999E" fill-rule="evenodd"/><path d="M2461 1594.47 2461 1565C2459.33 1566.22 2457.78 1567.4 2456 1568.53L2456 1598C2457.78 1596.87 2459.42 1595.69 2461 1594.47Z" fill="#27999E" fill-rule="evenodd"/><path d="M2472 1585.01 2472 1556C2470.42 1557.75 2468.75 1559.41 2467 1560.97L2467 1590C2468.75 1588.43 2470.42 1586.77 2472 1585.01Z" fill="#27999E" fill-rule="evenodd"/><path d="M2483 1568.03 2483 1539C2481.49 1542.54 2479.47 1545.9 2477 1548.97L2477 1578C2479.47 1574.92 2481.49 1571.57 2483 1568.03Z" fill="#27999E" fill-rule="evenodd"/><path d="M2982.79 1546.19C2983.48 1538.07 2985.18 1530.07 2987.84 1522.37 2990 1515.56 2993.33 1509.18 2997.68 1503.51 3001.88 1498.08 3007.76 1494.2 3014.42 1492.47 3020.92 1490.7 3027.88 1492.3 3032.96 1496.73 3037.33 1501.19 3039.58 1507.3 3039.17 1513.52 3039.07 1515.96 3042.87 1515.96 3042.96 1513.52 3043.29 1507.25 3041.37 1501.06 3037.54 1496.08 3032.91 1490.57 3025.93 1487.59 3018.74 1488.05 3002.26 1488.86 2991.6 1502.73 2985.9 1516.81 2982.15 1526.21 2979.83 1536.11 2979.01 1546.19 2978.79 1548.6 2982.63 1548.6 2982.81 1546.19Z" fill="#4A8278" fill-rule="evenodd"/><path d="M2921 1766.96C2922.9 1767.43 2953.55 1776.86 2953.55 1776.86L2984.18 1800 3111 1727.32 3111 1507.43 3085.99 1513.53 3067.6 1497 2942.84 1567.8Z" fill="#12A4AA" fill-rule="evenodd"/><path d="M3111 1507 2985.9 1580.08 2984 1800 3111 1727.23 3111 1507Z" fill="#12A4AA" fill-rule="evenodd"/><path d="M2943 1567.79 3068 1497 3068 1532.41 2986.25 1580.38 2984.35 1800 2953.64 1776.87 2964.97 1579.6 2943 1567.79Z" fill="#0C2151" fill-rule="evenodd"/><path d="M3068.02 1497 3086.24 1513.31 3111 1507.24C3111 1507.24 3068 1532.6 3068 1531.99Z" fill="#12A4AA" fill-rule="evenodd"/><path d="M2964.46 1579 2986 1579.78 2984.07 1800 2953 1776.8 2964.46 1579Z" fill="#174066" fill-rule="evenodd"/><path d="M3077 1549.5C3077 1552.54 3075.66 1555 3074 1555 3072.34 1555 3071 1552.54 3071 1549.5 3071 1546.46 3072.34 1544 3074 1544 3075.66 1544 3077 1546.46 3077 1549.5Z" fill="#4A8278" fill-rule="evenodd"/><path d="M3039 1571.5C3039 1574.54 3037.43 1577 3035.5 1577 3033.57 1577 3032 1574.54 3032 1571.5 3032 1568.46 3033.57 1566 3035.5 1566 3037.43 1566 3039 1568.46 3039 1571.5Z" fill="#4A8278" fill-rule="evenodd"/><path d="M3036.83 1572.72C3032.36 1562.44 3028.71 1551.83 3025.94 1540.99 3023.7 1531.22 3022.6 1520.53 3025.59 1510.8 3028.21 1502.32 3036.01 1492.86 3046.12 1494.99 3055.69 1496.99 3061.54 1507.09 3064.75 1515.37 3068.97 1526.2 3070.09 1538.03 3071.14 1549.56 3071.36 1551.96 3075.21 1552 3074.99 1549.56 3073.98 1538.46 3072.94 1527.16 3069.27 1516.55 3065.96 1507.03 3060.24 1496.45 3050.33 1492.36 3040.1 1488.11 3029.59 1494.4 3024.65 1503.33 3019.46 1512.65 3019.35 1523.87 3020.8 1534.13 3022.74 1547.9 3027.97 1560.9 3033.16 1573.73 3034.06 1575.97 3037.79 1575 3036.83 1572.72Z" fill="#4A8278" fill-rule="evenodd"/><path d="M3097.81 1564.16C3098.49 1555.9 3100.19 1547.77 3102.85 1539.94 3105.01 1533.02 3108.34 1526.53 3112.69 1520.77 3116.88 1515.24 3122.76 1511.29 3129.41 1509.54 3135.92 1507.74 3142.88 1509.36 3147.95 1513.87 3152.32 1518.41 3154.59 1524.62 3154.17 1530.95 3154.08 1533.43 3157.87 1533.43 3157.97 1530.95 3158.29 1524.57 3156.37 1518.28 3152.54 1513.21 3147.91 1507.61 3140.94 1504.58 3133.75 1505.05 3117.28 1505.87 3106.63 1519.98 3100.93 1534.29 3097.17 1543.84 3094.83 1553.9 3094.01 1564.16 3093.79 1566.61 3097.63 1566.61 3097.81 1564.16Z" fill="#4A8278" fill-rule="evenodd"/><path d="M3036 1783.97C3037.81 1784.44 3068.53 1793.87 3068.53 1793.87L3099.25 1817 3226 1744.32 3226 1524.39 3201.03 1530.53 3182.65 1514 3057.96 1584.79Z" fill="#47ACB1" fill-rule="evenodd"/><path d="M3226 1524 3100.88 1597.08 3099 1817 3226 1744.23 3226 1524Z" fill="#47ACB1" fill-rule="evenodd"/><path d="M3058 1584.79 3183 1514 3183 1549.41 3101.23 1597.38 3099.35 1817 3068.62 1793.87 3079.97 1596.6 3058 1584.79Z" fill="#24676A" fill-rule="evenodd"/><path d="M3183.02 1514 3201.24 1530.33 3226 1524.27C3226 1524.27 3183 1549.6 3183 1548.99Z" fill="#227B7F" fill-rule="evenodd"/><path d="M3080.14 1596 3101 1596.78 3099.15 1817 3069 1793.8 3080.14 1596Z" fill="#227B7F" fill-rule="evenodd"/><path d="M3192 1566.5C3192 1569.54 3190.66 1572 3189 1572 3187.34 1572 3186 1569.54 3186 1566.5 3186 1563.46 3187.34 1561 3189 1561 3190.66 1561 3192 1563.46 3192 1566.5Z" fill="#4A8278" fill-rule="evenodd"/><path d="M3154 1588.5C3154 1591.54 3152.66 1594 3151 1594 3149.34 1594 3148 1591.54 3148 1588.5 3148 1585.46 3149.34 1583 3151 1583 3152.66 1583 3154 1585.46 3154 1588.5Z" fill="#4A8278" fill-rule="evenodd"/><path d="M3152.53 1589.72C3148.13 1579.44 3144.55 1568.83 3141.83 1557.99 3139.63 1548.22 3138.55 1537.53 3141.49 1527.8 3144.06 1519.32 3151.72 1509.88 3161.64 1511.99 3171.04 1513.99 3176.79 1524.1 3179.94 1532.37 3184.08 1543.2 3185.18 1555.03 3186.21 1566.56 3186.42 1568.96 3190.21 1569 3189.99 1566.56 3189 1555.46 3187.97 1544.16 3184.37 1533.55 3181.13 1524.03 3175.51 1513.45 3165.78 1509.36 3155.73 1505.11 3145.41 1511.4 3140.57 1520.33 3135.47 1529.65 3135.36 1540.87 3136.78 1551.13 3138.69 1564.9 3143.83 1577.9 3148.91 1590.73 3149.81 1592.97 3153.46 1592 3152.51 1589.72Z" fill="#4A8278" fill-rule="evenodd"/><path d="M3571.32 1015.63 3887.41 1197.91C3894.53 1202.01 3898.91 1209.6 3898.91 1217.81L3899 1454.77C3899 1459.86 3894.87 1464 3889.77 1464 3888.15 1464 3886.56 1463.58 3885.15 1462.76L3564.5 1277.84C3557.38 1273.74 3553 1266.15 3553 1257.95L3553 1026.21C3553 1019.47 3558.47 1014 3565.22 1014 3567.36 1014 3569.46 1014.56 3571.32 1015.63Z" fill="#1E8F94" fill-rule="evenodd"/><path d="M3567.38 1017.67 3883.52 1200.34C3890.63 1204.45 3895.01 1212.06 3895 1220.28L3895 1457.75C3895 1462.86 3890.87 1467 3885.77 1467 3884.15 1467 3882.55 1466.57 3881.15 1465.76L3560.5 1280.44C3553.38 1276.33 3549 1268.73 3549 1260.5L3549 1028.25C3548.99 1021.49 3554.45 1016.01 3561.2 1016 3563.37 1016 3565.5 1016.57 3567.38 1017.67Z" fill="#24676A" fill-rule="evenodd"/><path d="M3774 1168 3774.02 1195.87 3867 1250 3867 1222.11 3774 1168Z" fill="#FFFFFF" fill-rule="evenodd"/><path d="M3573 1099.3 3573 1141.21C3573.02 1143.45 3574.21 1145.51 3576.15 1146.63L3616.49 1170.13C3619.49 1171.9 3623.36 1170.89 3625.13 1167.89 3625.7 1166.93 3626 1165.83 3626 1164.71L3626 1122.78C3625.99 1120.54 3624.8 1118.47 3622.85 1117.35L3582.51 1093.86C3579.49 1092.1 3575.62 1093.13 3573.86 1096.15 3573.3 1097.1 3573.01 1098.19 3573 1099.3Z" fill="#12A4AA" fill-rule="evenodd"/><path d="M3805 1310 3805.02 1328.69 3867 1365 3867 1346.31 3805 1310Z" fill="#FFFFFF" fill-rule="evenodd"/><path d="M3727 1265 3727 1283.34 3789 1319 3788.98 1300.65 3727 1265Z" fill="#FFFFFF" fill-rule="evenodd"/><path d="M3649 1220 3649 1238.35 3711 1274 3710.98 1255.65 3649 1220Z" fill="#FFFFFF" fill-rule="evenodd"/><path d="M3573 1177 3573.02 1195.34 3635 1231 3635 1212.63 3573 1177Z" fill="#FFFFFF" fill-rule="evenodd"/><path d="M3599.86 1251.62C3600.98 1263.76 3595.26 1274.24 3587.05 1274.96 3578.84 1275.68 3571.28 1266.52 3570.14 1254.38 3569 1242.24 3574.74 1231.76 3582.94 1231.04 3591.13 1230.32 3598.72 1239.46 3599.86 1251.62Z" fill="#24676A" fill-rule="evenodd"/><path d="M3619.41 1260.26C3620.56 1272.51 3614.73 1283.07 3606.39 1283.86 3598.04 1284.65 3590.34 1275.36 3589.19 1263.11 3588.03 1250.86 3593.86 1240.29 3602.2 1239.51 3610.55 1238.72 3618.25 1248.01 3619.41 1260.26Z" fill="#12A4AA" fill-rule="evenodd"/><path d="M3571.32 697.634 3887.41 880.276C3894.52 884.395 3898.9 891.994 3898.91 900.221L3899 1137.75C3899 1142.86 3894.87 1147 3889.77 1147 3888.15 1147 3886.56 1146.57 3885.15 1145.76L3564.5 960.4C3557.38 956.286 3553 948.684 3553 940.455L3553 708.168C3553.04 701.409 3558.54 695.96 3565.29 696 3567.41 696.011 3569.48 696.575 3571.32 697.634Z" fill="#24676A" fill-rule="evenodd"/><path d="M3567.38 700.662 3883.52 882.929C3890.63 887.04 3895 894.622 3895 902.825L3895 1139.77C3895 1144.87 3890.87 1149 3885.77 1149 3884.15 1149 3882.55 1148.58 3881.15 1147.76L3560.5 962.857C3553.38 958.753 3549 951.169 3549 942.961L3549 711.243C3548.98 704.5 3554.44 699.02 3561.19 699 3563.36 698.994 3565.5 699.568 3567.38 700.662Z" fill="#1B969B" fill-rule="evenodd"/><path d="M3774 851 3774.02 878.855 3867 933 3867 905.127 3774 851Z" fill="#FFFFFF" fill-rule="evenodd"/><path d="M3573 782.317 3573 824.211C3573.01 826.45 3574.2 828.516 3576.15 829.632L3616.49 853.128C3619.49 854.895 3623.36 853.892 3625.13 850.89 3625.7 849.925 3626 848.826 3626 847.706L3626 805.776C3625.98 803.54 3624.79 801.478 3622.85 800.354L3582.51 776.859C3579.49 775.102 3575.62 776.125 3573.86 779.145 3573.3 780.109 3573 781.204 3573 782.317Z" fill="#24676A" fill-rule="evenodd"/><path d="M3805 993 3805.02 1011.34 3867 1047 3867 1028.64 3805 993Z" fill="#FFFFFF" fill-rule="evenodd"/><path d="M3727 948 3727 966.354 3789 1002 3788.98 983.646 3727 948Z" fill="#FFFFFF" fill-rule="evenodd"/><path d="M3649 902 3649 920.676 3711 957 3710.98 938.288 3649 902Z" fill="#FFFFFF" fill-rule="evenodd"/><path d="M3573 859 3573.02 877.676 3635 914 3635 895.306 3573 859Z" fill="#FFFFFF" fill-rule="evenodd"/><path d="M3599.86 934.618C3600.98 946.756 3595.26 957.242 3587.05 957.961 3578.84 958.679 3571.28 949.539 3570.14 937.383 3569 925.227 3574.74 914.758 3582.94 914.04 3591.13 913.321 3598.72 922.461 3599.86 934.618Z" fill="#246669" fill-rule="evenodd"/><path d="M3618.86 943.096C3620 955.524 3614.27 966.226 3606.06 966.96 3597.84 967.694 3590.26 958.332 3589.14 945.904 3588.02 933.477 3593.72 922.775 3601.94 922.04 3610.16 921.306 3617.73 930.686 3618.86 943.096Z" fill="#24676A" fill-rule="evenodd"/><path d="M2817.08 1438.83 2817.57 1438.83C2796.42 1437.03 2775.8 1431.33 2756.77 1422 2742.25 1483.51 2759.73 1564.08 2759.73 1564.08 2759.73 1564.08 2767.8 1615.28 2763.76 1641.68 2759.91 1666.82 2766.43 1693.22 2770.1 1716.25 2773.24 1736 2778.21 1778.83 2778.21 1778.83 2796.05 1792 2810.94 1779.99 2810.94 1779.99 2810.94 1779.99 2821.3 1629.69 2828 1545.89 2822.17 1511.67 2815.71 1465.98 2817.08 1438.83Z" fill="#D9FFFF" fill-rule="evenodd"/><path d="M3006 1867C3006 1910.08 2938.4 1945 2855 1945 2771.6 1945 2704 1910.08 2704 1867 2704 1823.92 2771.6 1789 2855 1789 2938.4 1789 3006 1823.92 3006 1867Z" fill="#72CCBF" fill-rule="evenodd"/><path d="M2817.93 1473 2828 1545.8C2828 1545.8 2826.71 1561.75 2826.77 1560.97 2826.82 1560.19 2813.41 1512.63 2817.93 1473Z" fill="#ABD7DB" fill-rule="evenodd"/><path d="M2817.18 1439.9C2814.81 1487.47 2836.23 1592.05 2836.23 1592.05 2836.23 1592.05 2845.5 1652.46 2841.51 1678.83 2837.73 1703.94 2844.15 1730.31 2847.77 1753.32 2850.87 1773.04 2855.77 1815.83 2855.77 1815.83 2873.34 1828.99 2888.03 1817 2888.03 1817 2888.03 1817 2902.02 1611.2 2907.83 1547.11 2915.61 1461.55 2906.61 1423 2906.61 1423 2906.61 1423 2868.98 1444.45 2817.18 1439.9Z" fill="#D9FFFF" fill-rule="evenodd"/><path d="M2777.51 1802.02C2776.72 1801.53 2756.94 1810.14 2766.7 1839.81 2767.88 1842.79 2768.63 1845.92 2768.92 1849.11L2769.7 1871.97C2769.75 1873.28 2770.69 1874.38 2771.97 1874.63L2773.79 1874.98C2774.48 1875.11 2775.13 1874.66 2775.26 1873.98 2775.28 1873.9 2775.29 1873.82 2775.29 1873.74 2775.29 1869.18 2775.52 1855.5 2775.58 1850.17 2775.61 1848.27 2776.57 1846.49 2778.14 1845.43 2782.02 1842.63 2787.28 1842.74 2791.03 1845.7 2797.07 1850.06 2811.83 1859.78 2819.87 1865.05 2823.32 1867.32 2827.72 1867.5 2831.34 1865.53 2841.13 1860.2 2859.85 1848.62 2863.88 1835.98 2864.27 1834.72 2863.7 1833.35 2862.51 1832.75 2858.87 1830.93 2848.39 1827.96 2823.91 1831.42 2823.91 1831.42 2831.19 1844.03 2823.58 1845.83 2820.61 1846.47 2817.53 1845.26 2815.78 1842.77 2809.88 1834.52 2792.07 1811.16 2777.51 1802.02Z" fill="#191919" fill-rule="evenodd"/><path d="M2810.61 1780.1C2810.74 1795.77 2811.43 1804.62 2817.93 1818.83L2825.63 1835.28C2826.98 1838.71 2828.16 1843.6 2824.91 1845.41 2824.5 1845.6 2824.06 1845.75 2823.61 1845.84 2820.66 1846.45 2817.62 1845.26 2815.86 1842.8 2809.93 1834.64 2792.42 1811.52 2778 1802.42L2778 1802.42 2778 1802.42 2778 1802.42C2778 1796.01 2779.26 1790.36 2778.38 1779 2778.31 1778.95 2793.72 1791.78 2810.61 1780.1Z" fill="#F2B5A7" fill-rule="evenodd"/><path d="M2800.89 1510.08C2800.65 1540.88 2800.4 1571.69 2800.14 1602.5 2799.89 1633.31 2799.65 1664.12 2799.42 1694.92L2799 1746.92C2799 1747.51 2799.47 1748 2800.04 1748 2800.61 1748 2801.08 1747.51 2801.08 1746.92 2801.32 1716.1 2801.57 1685.29 2801.82 1654.48 2802.08 1623.67 2802.33 1592.87 2802.58 1562.07L2803 1510.08C2803 1509.49 2802.53 1509 2801.96 1509 2801.39 1509 2800.92 1509.49 2800.92 1510.08Z" fill="#ABD7DB" fill-rule="evenodd"/><path d="M2855.38 1839.02C2854.6 1838.53 2835 1847.02 2844.68 1876.29 2845.84 1879.23 2846.58 1882.32 2846.87 1885.47L2847.63 1908.01C2847.68 1909.3 2848.61 1910.39 2849.88 1910.64L2851.68 1910.98C2852.37 1911.11 2853.03 1910.66 2853.16 1909.97 2853.17 1909.91 2853.18 1909.84 2853.18 1909.77 2853.18 1905.26 2853.41 1891.78 2853.47 1886.53 2853.49 1884.64 2854.44 1882.89 2856.01 1881.83 2859.84 1879.07 2865.05 1879.18 2868.76 1882.1 2874.74 1886.4 2889.34 1895.99 2897.32 1901.19 2900.72 1903.42 2905.08 1903.6 2908.66 1901.66 2918.36 1896.41 2936.88 1884.98 2940.88 1872.52 2941.27 1871.26 2940.69 1869.91 2939.51 1869.33 2935.9 1867.53 2925.53 1864.6 2901.3 1868.04 2901.3 1868.04 2908.5 1880.47 2900.99 1882.23 2898.03 1882.87 2894.98 1881.68 2893.24 1879.21 2887.34 1871.08 2869.77 1848.03 2855.38 1839.02Z" fill="#191919" fill-rule="evenodd"/><path d="M2888.28 1816.1C2888.39 1831.76 2889.09 1840.61 2895.73 1854.82L2903.6 1871.27C2904.98 1874.71 2906.18 1879.59 2902.87 1881.4 2902.44 1881.6 2901.99 1881.75 2901.53 1881.84 2898.51 1882.46 2895.42 1881.26 2893.63 1878.8 2887.56 1870.64 2869.72 1847.51 2855 1838.42L2855 1838.42 2855 1838.42 2855 1838.42C2855 1832.01 2856.31 1826.38 2855.4 1815 2855.28 1814.93 2871.02 1827.74 2888.28 1816.1Z" fill="#F2B5A7" fill-rule="evenodd"/><path d="M2878.4 1497.17C2878.09 1534.31 2877.78 1571.46 2877.47 1608.6 2877.16 1645.74 2876.84 1682.89 2876.52 1720.03 2876.34 1740.92 2876.17 1761.81 2876 1782.7 2876 1783.42 2876.58 1784 2877.29 1784 2878 1784 2878.58 1783.42 2878.58 1782.7 2878.9 1745.55 2879.22 1708.41 2879.53 1671.27L2880.46 1559.85 2881 1497.17C2880.92 1496.44 2880.27 1495.92 2879.55 1496.01 2878.95 1496.08 2878.47 1496.56 2878.4 1497.17Z" fill="#ABD7DB" fill-rule="evenodd"/><path d="M2757.38 1422.62C2757.38 1422.62 2759.68 1408.76 2761.9 1400.43 2776.7 1345.17 2746.67 1256.91 2746.67 1256.91 2724.6 1101.57 2809.25 1138.95 2809.25 1138.95 2809.5 1138.33 2814.23 1141.1 2819.67 1144.53 2829.46 1150.69 2840.48 1154.62 2851.96 1156.05 2873.4 1159.05 2893 1169.75 2907.09 1186.16 2987.23 1277.04 2918.25 1263.32 2921.18 1276.1 2923.62 1286.79 2918.11 1315.07 2912.14 1339.37 2910.54 1345.84 2906.4 1389.51 2907 1422.52 2906.98 1422.53 2837.56 1461.78 2757.38 1422.62Z" fill="#5FF9F9" fill-rule="evenodd"/><path d="M2873.55 1161.41C2873.55 1161.41 2869.66 1142.62 2873.55 1136.07 2876.24 1135.8 2918.98 1132.77 2882.02 1038.96 2882.02 1038.96 2820.98 1004.15 2817 1102.83 2817 1102.83 2826.63 1126.75 2819.49 1144.01 2820.98 1170.79 2873.55 1161.41 2873.55 1161.41Z" fill="#F2B5A7" fill-rule="evenodd"/><path d="M2921.86 1279.23 2857 1222C2857 1222 2878.05 1268.58 2920.55 1299 2920.54 1298.95 2922.53 1285.47 2921.86 1279.23Z" fill="#38D6D2" fill-rule="evenodd"/><path d="M2885.33 1164.85C2904.08 1171.5 2942.6 1193.28 3010.17 1263.43 3010.17 1263.43 3018.46 1285.64 3006.67 1315 3006.67 1315 2948 1308.95 2869.23 1241.01 2858.83 1232.11 2851.21 1220.4 2847.31 1207.29 2843.68 1194.91 2843.14 1180.5 2854.56 1170.5 2863.04 1163.2 2874.8 1161.04 2885.33 1164.85Z" fill="#5FF9F9" fill-rule="evenodd"/><path d="M2882.57 1073.13C2883.28 1071.28 2883.89 1069.4 2884.39 1067.48 2886.39 1059.84 2886.53 1051.84 2884.81 1044.13 2884.09 1039.82 2882.37 1035.74 2879.79 1032.2 2879.79 1032.07 2879.58 1031.98 2879.39 1031.75 2867.54 1017.12 2819.73 1006.87 2793.15 1028.13 2764.06 1051.39 2763.9 1094.09 2763.77 1095.27 2763.65 1096.45 2762.06 1131.66 2731.18 1165.64 2700.29 1199.62 2700.91 1306.41 2776.63 1328.19 2852.34 1349.97 2863.65 1271.22 2863.65 1271.22 2863.65 1271.22 2862.6 1243.18 2847.47 1208.58 2832.35 1173.99 2851.51 1152.46 2851.51 1152.46 2851.51 1152.46 2865.4 1132.44 2862.9 1113.56 2863.24 1114.65 2863.5 1115.76 2863.7 1116.89 2864.12 1119.52 2864.34 1122.17 2864.34 1124.83 2864.42 1127.85 2864.33 1130.88 2864.07 1133.89 2862.74 1148.21 2856.89 1161.64 2855.16 1175.9 2854.3 1182.82 2854.74 1189.84 2856.45 1196.6 2858.24 1202.98 2860.63 1209.19 2863.58 1215.14 2869.43 1227.48 2875.68 1239.63 2878.81 1253.03 2881.7 1265.48 2881.81 1279.11 2876.5 1291.04 2875.85 1292.49 2875.12 1293.9 2874.32 1295.3 2873.95 1295.92 2874.17 1296.72 2874.79 1297.09 2875.42 1297.46 2876.23 1297.24 2876.59 1296.62 2883.19 1285.18 2884.52 1271.53 2882.56 1258.6 2880.43 1244.73 2874.61 1231.84 2868.5 1219.32 2865.38 1213.23 2862.65 1206.95 2860.34 1200.51 2858.14 1193.99 2857.19 1187.11 2857.54 1180.23 2858.36 1165.51 2864.45 1151.75 2866.45 1137.22 2867.31 1131.15 2867.41 1124.99 2866.74 1118.9 2866.34 1113.44 2864.25 1108.24 2860.76 1104.02 2860.31 1103.51 2859.83 1103.03 2859.32 1102.59 2859.05 1102.13 2858.78 1101.66 2858.49 1101.21 2858.49 1101.21 2841.27 1088.07 2850.05 1079.18 2850.86 1078.34 2851.94 1077.81 2853.11 1077.68 2855.87 1077.39 2861.12 1078.33 2864.8 1088.18 2865.12 1088.98 2865.98 1089.45 2866.83 1089.28L2866.83 1089.28C2867.89 1089.01 2870.65 1088.95 2871.27 1085.66 2871.51 1084.14 2871.24 1082.58 2870.49 1081.24 2867.95 1077.28 2868.98 1072.04 2872.83 1069.33 2878.57 1064.96 2882.33 1058.49 2883.27 1051.35 2883.37 1052.66 2883.41 1053.96 2883.41 1055.28 2883.39 1059.04 2882.92 1062.79 2881.99 1066.43 2881.49 1068.32 2880.88 1070.17 2880.18 1071.99 2879.39 1073.84 2878.74 1075.74 2878.23 1077.68 2877.22 1082.03 2877.53 1086.59 2879.1 1090.78 2879.32 1091.46 2880.03 1091.85 2880.72 1091.69 2881.41 1091.49 2881.82 1090.77 2881.63 1090.08 2880.25 1086.5 2879.92 1082.61 2880.67 1078.85 2881.14 1076.89 2881.78 1074.98 2882.57 1073.13Z" fill="#185454" fill-rule="evenodd"/><path d="M3145.96 1219.23C3145.19 1217.54 3143.19 1216.79 3141.51 1217.57 3141.02 1217.79 3140.6 1218.12 3140.27 1218.54 3133.65 1226.79 3122.22 1225.52 3122.22 1225.52 3129.66 1197.69 3107.52 1233.88 3107.52 1233.88L3010.61 1263.62C3011.39 1266.14 3017.47 1287.9 3007 1315L3113.26 1254.56C3155.87 1249.38 3150.56 1229.65 3145.96 1219.23Z" fill="#F2B5A7" fill-rule="evenodd"/><path d="M2757 1423C2795.09 1473.14 2897.88 1444.95 2907 1423 2907 1422.91 2837.4 1461.87 2757 1423Z" fill="#ABD7DB" fill-rule="evenodd"/><path d="M2861 1336.5C2861 1338.99 2858.99 1341 2856.5 1341 2854.01 1341 2852 1338.99 2852 1336.5 2852 1334.01 2854.01 1332 2856.5 1332 2856.51 1332 2856.51 1332 2856.52 1332 2858.99 1332 2861 1334.01 2861 1336.48 2861 1336.49 2861 1336.49 2861 1336.5Z" fill="#E0E0E0" fill-rule="evenodd"/><path d="M2852 1173.48C2852.01 1175.97 2850 1177.99 2847.52 1178 2845.03 1178.01 2843.01 1176 2843 1173.52 2842.99 1171.03 2845 1169.01 2847.48 1169 2847.49 1169 2847.51 1169 2847.52 1169 2849.99 1169 2852 1171.01 2852 1173.48Z" fill="#E0E0E0" fill-rule="evenodd"/><path d="M3004 1264.5C3004 1266.99 3001.99 1269 2999.5 1269 2997.01 1269 2995 1266.99 2995 1264.5 2995 1262.01 2997.01 1260 2999.5 1260 2999.51 1260 2999.51 1260 2999.52 1260 3001.99 1260 3004 1262.01 3004 1264.48 3004 1264.49 3004 1264.49 3004 1264.5Z" fill="#E0E0E0" fill-rule="evenodd"/><path d="M2999 1299.5C2999 1301.99 2996.99 1304 2994.5 1304 2992.01 1304 2990 1301.99 2990 1299.5 2990 1297.01 2992.01 1295 2994.5 1295 2996.99 1295 2999 1297.01 2999 1299.5Z" fill="#E0E0E0" fill-rule="evenodd"/><path d="M2955 1278.5C2955 1280.99 2952.99 1283 2950.5 1283 2948.01 1283 2946 1280.99 2946 1278.5 2946 1276.01 2948.01 1274 2950.5 1274 2952.99 1274 2955 1276.01 2955 1278.5Z" fill="#E0E0E0" fill-rule="evenodd"/><path d="M2873 1276.48C2873.01 1278.97 2871 1280.99 2868.52 1281 2866.03 1281.01 2864.01 1279 2864 1276.52 2863.99 1274.03 2866 1272.01 2868.48 1272 2868.49 1272 2868.51 1272 2868.52 1272 2870.99 1272.01 2872.99 1274.01 2873 1276.48Z" fill="#E0E0E0" fill-rule="evenodd"/><path d="M2896 1184.5C2896 1186.99 2893.99 1189 2891.5 1189 2889.02 1189 2887 1186.99 2887 1184.5 2887 1182.02 2889.02 1180 2891.5 1180 2893.99 1180 2896 1182.02 2896 1184.5Z" fill="#E0E0E0" fill-rule="evenodd"/><path d="M2811 1345C2811 1347.21 2808.98 1349 2806.5 1349 2804.01 1349 2802 1347.21 2802 1345 2802 1342.79 2804.01 1341 2806.5 1341 2808.98 1341.01 2810.99 1342.79 2811 1345Z" fill="#E0E0E0" fill-rule="evenodd"/><path d="M2778 1358.5C2778 1360.99 2775.99 1363 2773.5 1363 2771.01 1363 2769 1360.99 2769 1358.5 2769 1356.01 2771.01 1354 2773.5 1354 2775.99 1354 2778 1356.01 2778 1358.5Z" fill="#E0E0E0" fill-rule="evenodd"/><path d="M2827 1387.48C2827.01 1389.97 2825 1391.99 2822.52 1392 2820.03 1392.01 2818.01 1390 2818 1387.52 2817.99 1385.03 2820 1383.01 2822.48 1383 2822.49 1383 2822.49 1383 2822.5 1383 2824.98 1383 2826.99 1385 2827 1387.48Z" fill="#E0E0E0" fill-rule="evenodd"/><path d="M2864 1374.5C2864 1376.99 2861.99 1379 2859.5 1379 2857.01 1379 2855 1376.99 2855 1374.5 2855 1372.01 2857.01 1370 2859.5 1370 2861.99 1370 2864 1372.01 2864 1374.5Z" fill="#E0E0E0" fill-rule="evenodd"/><path d="M2904 1363.5C2904 1365.99 2902.21 1368 2900 1368 2897.79 1368 2896 1365.99 2896 1363.5 2896 1361.01 2897.79 1359 2900 1359 2902.21 1359 2904 1361.01 2904 1363.5Z" fill="#E0E0E0" fill-rule="evenodd"/><path d="M2921 1207.5C2921 1209.99 2918.99 1212 2916.5 1212 2914.01 1212 2912 1209.99 2912 1207.5 2912 1205.01 2914.01 1203 2916.5 1203 2918.99 1203 2921 1205.01 2921 1207.5Z" fill="#E0E0E0" fill-rule="evenodd"/><path d="M2848 1420.48C2848.01 1422.97 2846 1424.99 2843.52 1425 2841.03 1425.01 2839.01 1423 2839 1420.52 2838.99 1418.03 2841 1416.01 2843.48 1416 2843.49 1416 2843.49 1416 2843.5 1416 2845.98 1416 2847.99 1418 2848 1420.48Z" fill="#E0E0E0" fill-rule="evenodd"/><path d="M2804 1430.5C2804 1432.99 2801.98 1435 2799.5 1435 2797.01 1435 2795 1432.99 2795 1430.5 2795 1428.02 2797.01 1426 2799.5 1426 2801.98 1426 2804 1428.02 2804 1430.5Z" fill="#E0E0E0" fill-rule="evenodd"/><path d="M2903 1322.48C2903.01 1324.97 2901 1326.99 2898.52 1327 2896.03 1327.01 2894.01 1325 2894 1322.52 2893.99 1320.03 2896 1318.01 2898.48 1318 2898.49 1318 2898.51 1318 2898.52 1318 2900.99 1318.01 2902.99 1320.01 2903 1322.48Z" fill="#E0E0E0" fill-rule="evenodd"/><path d="M2864 1219.5C2864 1221.99 2861.99 1224 2859.5 1224 2857.01 1224 2855 1221.99 2855 1219.5 2855 1217.01 2857.01 1215 2859.5 1215 2861.99 1215 2864 1217.01 2864 1219.5Z" fill="#E0E0E0" fill-rule="evenodd"/><path d="M2911 1287.48C2911.01 1289.97 2909 1291.99 2906.52 1292 2904.03 1292.01 2902.01 1290 2902 1287.52 2901.99 1285.03 2904 1283.01 2906.48 1283 2906.49 1283 2906.49 1283 2906.5 1283 2908.98 1283 2910.99 1285 2911 1287.48Z" fill="#E0E0E0" fill-rule="evenodd"/><path d="M2926 1256.98C2926.01 1259.19 2924 1260.99 2921.52 1261 2919.03 1261.01 2917.01 1259.23 2917 1257.02 2916.99 1254.81 2919 1253.01 2921.48 1253 2921.49 1253 2921.51 1253 2921.52 1253 2923.99 1253.01 2925.99 1254.79 2926 1256.98Z" fill="#E0E0E0" fill-rule="evenodd"/><path d="M2955 1231.5C2955 1233.99 2952.99 1236 2950.5 1236 2948.01 1236 2946 1233.99 2946 1231.5 2946 1229.01 2948.01 1227 2950.5 1227 2952.99 1227 2955 1229.01 2955 1231.5Z" fill="#E0E0E0" fill-rule="evenodd"/><path d="M2894 1399C2894 1401.21 2891.99 1403 2889.5 1403 2887.01 1403 2885 1401.21 2885 1399 2885 1396.79 2887.01 1395 2889.5 1395 2891.99 1395 2894 1396.79 2894 1399Z" fill="#E0E0E0" fill-rule="evenodd"/><path d="M2787 1399C2787 1401.21 2784.99 1403 2782.5 1403 2780.01 1403 2778 1401.21 2778 1399 2778 1396.79 2780.01 1395 2782.5 1395 2784.99 1395 2787 1396.79 2787 1399Z" fill="#E0E0E0" fill-rule="evenodd"/><path d="M3394 2165 3813 1860.32 3795.44 1803.61C3792.27 1793.41 3781.45 1787.7 3771.26 1790.88 3768.66 1791.69 3766.26 1793.04 3764.21 1794.85L3436.81 2084.84C3421.46 2098.42 3410.02 2115.88 3403.67 2135.39Z" fill="#184D54" fill-rule="evenodd"/><path d="M3436.81 2084.83 3764.23 1794.84C3770.54 1789.22 3779.78 1788.38 3787 1792.77 3776.68 1785.51 3760.59 1782.99 3751.75 1790.74L3426.8 2078.56C3411.45 2092.14 3400 2109.6 3393.65 2129.11L3384 2158.72 3393.99 2165 3403.66 2135.39C3410.01 2115.88 3421.46 2098.42 3436.81 2084.83Z" fill="#72CCCC" fill-rule="evenodd"/><path d="M3383.37 2158 3366 2147.83 3371.04 2145 3385 2152.92 3383.37 2158Z" fill="#72CCCC" fill-rule="evenodd"/><path d="M3745.35 1729.08C3765.16 1715.47 3787.61 1709.6 3808 1713.35L3808 1713.35 3562.63 1582.47C3542.36 1571.66 3517.52 1574.59 3500.31 1589.82L3121.61 1925.05C3101.51 1942.84 3090 1968.41 3090 1995.27L3090 1997.68 3309.26 2123 3309.64 2122.69C3309.46 2121.8 3309.35 2120.89 3309.31 2119.97L3309.31 2119.7C3309.31 2119.36 3309.31 2119.01 3309.31 2118.67 3309.33 2118.25 3309.38 2117.83 3309.46 2117.42L3309.6 2116.62C3312.41 2101.38 3320.36 2087.57 3332.13 2077.49L3726.96 1739.49C3732.35 1734.64 3738.75 1731.05 3745.7 1728.99Z" fill="#C0FFFD" fill-rule="evenodd"/><path d="M3772 1731 3773 1732Z" fill="#C0FFFD" fill-rule="evenodd"/><path d="M3768 1730 3769 1731Z" fill="#C0FFFD" fill-rule="evenodd"/><path d="M3770 1730 3771 1731Z" fill="#C0FFFD" fill-rule="evenodd"/><path d="M3766 1729 3767 1730Z" fill="#C0FFFD" fill-rule="evenodd"/><path d="M3780 1735 3781 1736Z" fill="#C0FFFD" fill-rule="evenodd"/><path d="M3774 1732 3775 1733Z" fill="#C0FFFD" fill-rule="evenodd"/><path d="M3778 1734 3779 1735Z" fill="#C0FFFD" fill-rule="evenodd"/><path d="M3776 1733 3777 1734Z" fill="#C0FFFD" fill-rule="evenodd"/><path d="M3764 1729 3765 1730Z" fill="#C0FFFD" fill-rule="evenodd"/><path d="M3750 1729 3751 1728Z" fill="#C0FFFD" fill-rule="evenodd"/><path d="M3748 1729 3749 1728Z" fill="#C0FFFD" fill-rule="evenodd"/><path d="M3747 1730 3748 1729Z" fill="#C0FFFD" fill-rule="evenodd"/><path d="M3758 1728 3760 1729Z" fill="#C0FFFD" fill-rule="evenodd"/><path d="M3760 1728C3761.33 1728.22 3762.67 1728.56 3764 1729 3762.64 1728.58 3761.31 1728.24 3760 1728Z" fill="#C0FFFD" fill-rule="evenodd"/><path d="M3393.08 2128.74C3397.42 2115.36 3404.17 2102.9 3413 2092L3413 2092C3372.27 2107.92 3371 2145.03 3371 2145.03L3385.27 2153Z" fill="#266366" fill-rule="evenodd"/><path d="M3535.07 1904.11 3727.08 1740.01C3730.2 1737.3 3733.61 1734.94 3737.24 1732.97L3738 1732.32 3493.03 1597 3299.37 1768.11C3289.11 1777.18 3288.15 1792.86 3297.23 1803.12 3298.98 1805.09 3301.03 1806.77 3303.3 1808.1L3473.14 1907.28C3492.58 1918.62 3516.89 1917.38 3535.07 1904.11Z" fill="#266366" fill-rule="evenodd"/><path d="M3338 1745.64 3558.11 1874 3696 1751.58 3471.14 1626 3338 1745.64Z" fill="#4893E9" fill-rule="evenodd"/><path d="M3507 1580.35 3507 1580.35C3491.95 1568.57 3470.58 1569.33 3456.41 1582.16L3090.94 1913C3071.88 1930.26 3061 1954.77 3061 1980.47L3061 1992.53 3079.92 2004 3079.92 1993.56C3080.38 1966.32 3090.6 1940.82 3111.35 1923.13Z" fill="#72CCCC" fill-rule="evenodd"/><path d="M3090.15 1997.39 3090.15 1994.98C3090.17 1968.13 3101.7 1942.58 3121.82 1924.81L3500.22 1589.74C3503.22 1587.09 3506.5 1584.77 3510 1582.83L3506.38 1580 3111.36 1923.08C3090.65 1940.77 3080.45 1966.29 3080 1993.55L3080 2004 3090.11 1997.39Z" fill="#95FCEF" fill-rule="evenodd"/><path d="M3823.94 1815.58 3822.46 1786.95C3820.65 1750.39 3777.54 1731.84 3749.66 1755.67L3354.96 2093.04C3343.2 2103.1 3335.26 2116.89 3332.45 2132.11L3332.3 2132.9C3330.46 2143.1 3337.24 2152.86 3347.44 2154.71 3351.58 2155.45 3355.86 2154.78 3359.58 2152.81L3370.89 2145.37C3370.89 2144.23 3372.83 2107.81 3413.51 2092.05L3413.51 2092.05C3417.46 2087.23 3421.78 2082.73 3426.44 2078.6L3751.33 1791.62C3760.16 1783.9 3776.23 1786.36 3786.57 1793.65 3788.93 1795.07 3790.97 1796.98 3792.52 1799.26L3792.52 1799.26 3792.52 1799.26C3793.58 1800.83 3794.4 1802.55 3794.97 1804.36L3810.44 1854.23C3819.75 1843.56 3824.59 1829.72 3823.94 1815.58Z" fill="#95FCEF" fill-rule="evenodd"/><path d="M3342.74 2153.78C3341.36 2153.17 3340.07 2152.41 3338.88 2151.48L3338.75 2151.48 3337.75 2150.65 3337.59 2150.5C3337.26 2150.21 3336.94 2149.89 3336.63 2149.56L3336.63 2149.56C3335.96 2148.84 3335.36 2148.06 3334.81 2147.24L3334.71 2147.1 3334.05 2146.03C3334 2145.92 3333.94 2145.81 3333.87 2145.7L3333.38 2144.74C3333.33 2144.62 3333.27 2144.5 3333.2 2144.38L3332.78 2143.35C3332.78 2143.24 3332.78 2143.13 3332.66 2143 3332.32 2142.08 3332.08 2141.13 3331.91 2140.16 3331.91 2140.02 3331.91 2139.88 3331.91 2139.74 3331.85 2139.39 3331.81 2139.03 3331.79 2138.67L3331.79 2138.13C3331.79 2137.8 3331.79 2137.47 3331.79 2137.13L3331.79 2136.49 3331.79 2135.43C3331.79 2135.26 3331.79 2135.08 3331.79 2134.92 3331.79 2134.39 3331.91 2133.87 3332.01 2133.32L3332.15 2132.53C3332.33 2131.55 3332.55 2130.57 3332.77 2129.61L3332.93 2128.94C3333.11 2128.19 3333.29 2127.43 3333.51 2126.69 3333.51 2126.49 3333.62 2126.29 3333.69 2126.07 3333.91 2125.31 3334.13 2124.55 3334.38 2123.81 3334.44 2123.66 3334.48 2123.5 3334.53 2123.34 3334.8 2122.54 3335.09 2121.74 3335.38 2120.95L3335.5 2120.66C3335.83 2119.8 3336.16 2118.97 3336.52 2118.14 3336.51 2118.08 3336.51 2118.03 3336.52 2117.97 3336.89 2117.1 3337.29 2116.23 3337.72 2115.36L3337.72 2115.36C3339.36 2111.95 3341.3 2108.68 3343.5 2105.6L3343.5 2105.6C3344.33 2104.42 3345.2 2103.28 3346.13 2102.15L3346.13 2102.15C3346.76 2101.36 3347.43 2100.58 3348.12 2099.81 3348.81 2099.04 3349.52 2098.28 3350.24 2097.53L3350.24 2097.53 3350.24 2097.53C3350.91 2096.84 3351.58 2096.19 3352.29 2095.54 3353 2094.89 3353.7 2094.25 3354.43 2093.62L3518.6 1953.28 3518.6 1953.28 3749.85 1755.34C3766.24 1741.24 3790.43 1741.08 3807 1754.96 3770.4 1721.14 3747.06 1722.85 3727.25 1739.79L3331.88 2077.78C3320.1 2087.85 3312.14 2101.66 3309.33 2116.9L3309.18 2117.7C3306.68 2131.35 3330.21 2156.59 3342.74 2153.78Z" fill="#72CCCC" fill-rule="evenodd"/><path d="M3828.56 1720.55C3803.87 1706.21 3772.62 1710.53 3746 1728.89 3762.02 1724.35 3781.22 1730.47 3807.08 1754.54 3816.57 1762.43 3822.25 1774.02 3822.69 1786.4L3824.1 1815.21C3824.78 1829.44 3819.98 1843.38 3810.69 1854.13L3812.77 1860.84 3751.59 1905.53C3785.43 1909.52 3823.9 1887.78 3846.26 1848.79 3874.25 1799.93 3866.33 1742.52 3828.56 1720.55Z" fill="#266366" fill-rule="evenodd"/><path d="M3309.93 2123.27 3089.63 1998 3075 2007.98 3320.55 2147 3324 2144.7C3317.3 2138.6 3311.55 2130.32 3309.93 2123.27Z" fill="#95FCEF" fill-rule="evenodd"/><path d="M3075 2008 3075 2012.1 3320.46 2151 3327 2147.09 3324.31 2144.8 3320.86 2147.09 3075 2008Z" fill="#266366" fill-rule="evenodd"/><path d="M3449.6 1823C3450.61 1825.03 3451.15 1827.27 3451.17 1829.54 3451.17 1842.46 3433.49 1852.92 3411.65 1852.92 3406.72 1852.93 3401.8 1852.38 3397 1851.26L3480.35 1899.87C3496.89 1909.53 3517.74 1907.64 3532.28 1895.17L3549 1880.84Z" fill="#95FCEF" fill-rule="evenodd"/><path d="M3371.88 1829.06C3371.88 1816.22 3389.63 1805.81 3411.52 1805.81 3415.03 1805.81 3418.53 1806.08 3422 1806.64L3329.08 1753 3303.7 1775.62C3297.9 1780.76 3297.4 1789.58 3302.58 1795.32 3303.56 1796.41 3304.71 1797.34 3305.98 1798.08L3374.98 1838C3373.03 1835.42 3371.94 1832.29 3371.88 1829.06Z" fill="#95FCEF" fill-rule="evenodd"/><path d="M3412 1813C3396.54 1813 3384 1820.39 3384 1829.49 3384 1838.6 3396.54 1846 3412 1846 3427.46 1846 3440 1838.61 3440 1829.49 3440 1820.37 3427.46 1813 3412 1813Z" fill="#95FCEF" fill-rule="evenodd"/><path d="M3398.79 1911.04 3414.85 1897.26C3416.52 1895.82 3418.94 1895.59 3420.86 1896.68L3466.4 1922.48C3468.88 1923.88 3469.74 1926.99 3468.31 1929.43 3468.01 1929.94 3467.62 1930.4 3467.17 1930.78L3450.43 1944.78C3448.74 1946.19 3446.33 1946.4 3444.42 1945.3L3399.57 1919.29C3397.1 1917.87 3396.26 1914.76 3397.71 1912.33 3397.99 1911.84 3398.36 1911.41 3398.79 1911.04Z" fill="#72CCCC" fill-rule="evenodd"/><path d="M3329.74 1871.04 3345.59 1857.26C3347.23 1855.83 3349.61 1855.59 3351.51 1856.67L3396.42 1882.46C3398.88 1883.86 3399.73 1886.99 3398.32 1889.44 3398.02 1889.94 3397.65 1890.4 3397.2 1890.78L3380.74 1904.78C3379.07 1906.2 3376.68 1906.4 3374.79 1905.29L3330.55 1879.28C3328.1 1877.86 3327.27 1874.74 3328.7 1872.3 3328.97 1871.82 3329.33 1871.4 3329.74 1871.04Z" fill="#72CCCC" fill-rule="evenodd"/><path d="M3258.81 1829.34 3274.88 1815.29C3276.54 1813.83 3278.96 1813.58 3280.88 1814.69L3326.4 1840.99C3328.89 1842.44 3329.74 1845.64 3328.29 1848.14 3328 1848.64 3327.63 1849.1 3327.19 1849.48L3310.38 1863.76C3308.68 1865.2 3306.26 1865.41 3304.35 1864.27L3259.51 1837.75C3257.05 1836.26 3256.26 1833.06 3257.75 1830.59 3258.04 1830.12 3258.4 1829.7 3258.81 1829.34Z" fill="#72CCCC" fill-rule="evenodd"/><path d="M3365.75 1940.35 3381.59 1926.28C3383.24 1924.82 3385.62 1924.59 3387.52 1925.7L3432.43 1952C3434.88 1953.43 3435.73 1956.6 3434.32 1959.09 3434.02 1959.61 3433.64 1960.08 3433.19 1960.47L3416.68 1974.75C3415.02 1976.19 3412.64 1976.41 3410.76 1975.28L3366.53 1948.74C3364.09 1947.29 3363.28 1944.11 3364.7 1941.63 3364.98 1941.15 3365.34 1940.72 3365.75 1940.35Z" fill="#72CCCC" fill-rule="evenodd"/><path d="M3295.78 1900.34 3311.85 1886.29C3313.52 1884.83 3315.93 1884.58 3317.86 1885.69L3363.39 1911.99C3365.88 1913.42 3366.74 1916.61 3365.31 1919.1 3365.01 1919.62 3364.63 1920.09 3364.17 1920.47L3347.43 1934.76C3345.74 1936.2 3343.32 1936.41 3341.41 1935.27L3296.55 1908.75C3294.08 1907.28 3293.26 1904.08 3294.73 1901.61 3295.01 1901.13 3295.37 1900.7 3295.78 1900.34Z" fill="#72CCCC" fill-rule="evenodd"/><path d="M3225.82 1859.31 3241.65 1845.29C3243.29 1843.83 3245.67 1843.58 3247.57 1844.69L3292.43 1870.94C3294.88 1872.37 3295.73 1875.55 3294.32 1878.05 3294.03 1878.56 3293.65 1879.03 3293.2 1879.41L3276.71 1893.76C3275.04 1895.2 3272.65 1895.41 3270.77 1894.27L3226.58 1867.8C3224.12 1866.37 3223.27 1863.19 3224.68 1860.7 3224.98 1860.17 3225.36 1859.7 3225.82 1859.31Z" fill="#72CCCC" fill-rule="evenodd"/><path d="M3330.75 1970.05 3346.59 1956.26C3348.25 1954.82 3350.64 1954.59 3352.54 1955.69L3397.43 1981.47C3399.88 1982.87 3400.73 1985.99 3399.32 1988.42 3399.02 1988.94 3398.64 1989.39 3398.19 1989.77L3381.68 2003.78C3380.02 2005.19 3377.64 2005.4 3375.76 2004.3L3331.53 1978.28C3329.09 1976.86 3328.28 1973.74 3329.7 1971.31 3329.98 1970.84 3330.34 1970.41 3330.75 1970.05Z" fill="#72CCCC" fill-rule="evenodd"/><path d="M3260.77 1930.03 3276.61 1916.26C3278.26 1914.83 3280.64 1914.59 3282.55 1915.67L3327.43 1941.46C3329.89 1942.87 3330.73 1945.99 3329.31 1948.44 3329.02 1948.94 3328.64 1949.4 3328.19 1949.78L3311.65 1963.78C3309.99 1965.2 3307.61 1965.4 3305.73 1964.28L3261.5 1938.28C3259.07 1936.84 3258.27 1933.7 3259.72 1931.28 3260 1930.81 3260.35 1930.39 3260.77 1930.03Z" fill="#72CCCC" fill-rule="evenodd"/><path d="M3189.78 1889.04 3205.85 1875.27C3207.52 1873.83 3209.93 1873.59 3211.86 1874.68L3257.39 1900.46C3259.88 1901.86 3260.74 1904.99 3259.31 1907.44 3259.01 1907.94 3258.63 1908.4 3258.17 1908.78L3241.43 1922.78C3239.75 1924.2 3237.33 1924.4 3235.43 1923.28L3190.55 1897.29C3188.08 1895.85 3187.26 1892.71 3188.73 1890.28 3189.01 1889.82 3189.37 1889.4 3189.78 1889.04Z" fill="#72CCCC" fill-rule="evenodd"/><path d="M3295.85 2002.32 3311.9 1988.28C3313.57 1986.82 3315.98 1986.59 3317.9 1987.7L3363.39 2013.95C3365.87 2015.37 3366.74 2018.54 3365.32 2021.02 3365.02 2021.54 3364.63 2022.01 3364.17 2022.4L3347.45 2036.75C3345.76 2038.2 3343.34 2038.41 3341.43 2037.28L3296.61 2010.79C3294.13 2009.37 3293.26 2006.2 3294.68 2003.72 3294.98 2003.19 3295.38 2002.71 3295.85 2002.32Z" fill="#72CCCC" fill-rule="evenodd"/><path d="M3226.76 1962.33 3242.6 1948.28C3244.25 1946.82 3246.63 1946.59 3248.52 1947.7L3293.42 1974C3295.87 1975.43 3296.73 1978.6 3295.33 1981.09 3295.03 1981.61 3294.65 1982.08 3294.2 1982.47L3277.69 1996.76C3276.02 1998.2 3273.63 1998.41 3271.75 1997.27L3227.52 1970.75C3225.08 1969.28 3224.27 1966.08 3225.72 1963.6 3226 1963.13 3226.35 1962.7 3226.76 1962.33Z" fill="#72CCCC" fill-rule="evenodd"/><path d="M3155.83 1921.03 3171.87 1907.26C3173.55 1905.83 3175.96 1905.59 3177.89 1906.67L3223.4 1932.48C3225.88 1933.88 3226.74 1936.99 3225.31 1939.43 3225.01 1939.94 3224.62 1940.4 3224.17 1940.78L3207.45 1954.78C3205.76 1956.2 3203.34 1956.4 3201.43 1955.29L3156.6 1929.36C3154.11 1927.94 3153.26 1924.82 3154.7 1922.37 3155 1921.87 3155.38 1921.41 3155.83 1921.03Z" fill="#72CCCC" fill-rule="evenodd"/><path d="M3260.75 2035.05 3276.59 2021.26C3278.25 2019.82 3280.64 2019.59 3282.54 2020.69L3327.43 2046.47C3329.89 2047.88 3330.73 2051 3329.31 2053.45 3329.02 2053.95 3328.64 2054.41 3328.19 2054.79L3311.68 2068.77C3310.02 2070.19 3307.64 2070.4 3305.76 2069.29L3261.53 2043.29C3259.09 2041.86 3258.27 2038.73 3259.71 2036.3 3259.99 2035.83 3260.34 2035.41 3260.75 2035.05Z" fill="#4893E9" fill-rule="evenodd"/><path d="M3190.76 1995.03 3206.6 1981.26C3208.25 1979.82 3210.63 1979.59 3212.52 1980.68L3257.42 2006.47C3259.88 2007.87 3260.73 2010.98 3259.33 2013.42 3259.03 2013.93 3258.65 2014.39 3258.2 2014.77L3241.69 2028.78C3240.03 2030.19 3237.65 2030.4 3235.77 2029.3L3191.52 2003.28C3189.08 2001.84 3188.27 1998.7 3189.72 1996.28 3190 1995.81 3190.35 1995.39 3190.76 1995.03Z" fill="#FF9E26" fill-rule="evenodd"/><path d="M3119.78 1953.33 3135.85 1939.28C3137.52 1937.82 3139.94 1937.59 3141.86 1938.7L3187.39 1965C3189.87 1966.43 3190.74 1969.6 3189.32 1972.09 3189.02 1972.61 3188.63 1973.08 3188.17 1973.47L3171.43 1987.76C3169.74 1989.2 3167.32 1989.41 3165.41 1988.27L3120.55 1961.75C3118.08 1960.28 3117.26 1957.08 3118.73 1954.6 3119.01 1954.13 3119.37 1953.7 3119.78 1953.33Z" fill="#E2428A" fill-rule="evenodd"/><path d="M3510 1605.89 3711.64 1717C3711.64 1717 3723.07 1528.4 3843 1530.75L3669.03 1424.16C3653.38 1414.54 3633.93 1413.35 3617.21 1421 3580.69 1437.75 3523.14 1486.89 3510 1605.89Z" fill="#D9FFFF" fill-rule="evenodd"/><path d="M3915.06 1630.74C3897.72 1546.48 3842.7 1531.02 3842.7 1531.02 3801.03 1530.21 3772.51 1552.5 3753 1581.95 3757.11 1588.23 3761.98 1593.98 3767.49 1599.07L3962 1713C3955.08 1706.61 3939.32 1694.4 3925.13 1662.51 3920.63 1652.31 3917.25 1641.66 3915.06 1630.74Z" fill="#ABDBD7" fill-rule="evenodd"/><path d="M3900.99 1490C3899.43 1490 3873.68 1550.85 3875.05 1552.17L3875.05 1552.17C3890.17 1566.91 3906.51 1591.24 3914.63 1630.58 3916.81 1641.48 3920.16 1652.12 3924.64 1662.3 3938.83 1694.14 3954.59 1706.34 3961.52 1712.72 4056.5 1771.79 4098 1598.58 4098 1598.58 4098 1598.58 3902.56 1490 3900.99 1490Z" fill="#D9FFFF" fill-rule="evenodd"/><path d="M3534.9 1582.6 3537.39 1578.08 3586.4 1605.09 3583.9 1609.61Z" fill="#184D54" fill-rule="evenodd"/><path d="M3644.71 1647.11 3647.2 1642.59 3696.21 1669.61 3693.71 1674.13Z" fill="#184D54" fill-rule="evenodd"/><path d="M3672.34 1561.41 3674.83 1556.89 3723.83 1583.91 3721.34 1588.43Z" fill="#184D54" fill-rule="evenodd"/><path d="M3734.32 1498.83 3736.81 1494.31 3785.81 1521.33 3783.32 1525.85Z" fill="#184D54" fill-rule="evenodd"/><path d="M3539.22 1565.67 3541.71 1561.15 3616.85 1602.58 3614.36 1607.09Z" fill="#184D54" fill-rule="evenodd"/><path d="M3569.69 1503.43 3572.19 1498.91 3621.19 1525.92 3618.7 1530.44Z" fill="#184D54" fill-rule="evenodd"/><path d="M4015.91 1582.9 4018.4 1578.38 4067.4 1605.4 4064.91 1609.92Z" fill="#184D54" fill-rule="evenodd"/><path d="M3594.18 1471.81 3596.67 1467.29 3645.68 1494.31 3643.19 1498.83Z" fill="#184D54" fill-rule="evenodd"/><path d="M3673.33 1439.66 3675.83 1435.14 3724.83 1462.16 3722.34 1466.68Z" fill="#184D54" fill-rule="evenodd"/><path d="M3581.11 1487.07 3583.6 1482.55 3658.74 1523.98 3656.25 1528.5Z" fill="#184D54" fill-rule="evenodd"/><path d="M3637.76 1443.91 3640.25 1439.39 3715.39 1480.82 3712.9 1485.34Z" fill="#184D54" fill-rule="evenodd"/><path d="M3901.61 1582.89 3904.11 1578.37 3953.11 1605.39 3950.62 1609.91Z" fill="#184D54" fill-rule="evenodd"/><path d="M3908.19 1562.76 3910.68 1558.24 3985.82 1599.67 3983.33 1604.19Z" fill="#184D54" fill-rule="evenodd"/><path d="M3940.77 1644.79 3943.26 1640.27 4018.4 1681.7 4015.91 1686.22Z" fill="#184D54" fill-rule="evenodd"/><path d="M3929.59 1665.52 3932.09 1661 4007.22 1702.43 4004.73 1706.95Z" fill="#184D54" fill-rule="evenodd"/><path d="M3923.11 1531.87 3925.6 1527.35 4000.74 1568.78 3998.24 1573.3Z" fill="#184D54" fill-rule="evenodd"/><path d="M3546.35 1548.08 3548.84 1543.56 3623.98 1584.99 3621.49 1589.51Z" fill="#184D54" fill-rule="evenodd"/><path d="M3467.91 1651.98 3470.4 1647.46 3545.54 1688.89 3543.05 1693.41Z" fill="#FFFFFF" fill-rule="evenodd"/><path d="M3447.17 1672.27 3449.66 1667.75 3524.8 1709.18 3522.3 1713.7Z" fill="#FFFFFF" fill-rule="evenodd"/><path d="M3374.65 1731.61 3377.15 1727.09 3452.29 1768.52 3449.79 1773.04Z" fill="#FFFFFF" fill-rule="evenodd"/><path d="M3581.1 1716.53 3583.59 1712.01 3658.73 1753.44 3656.24 1757.95Z" fill="#FFFFFF" fill-rule="evenodd"/><path d="M3485 1754C3486.16 1754.88 3498.07 1792.94 3498.91 1792.78 3499.74 1792.62 3637 1783.97 3637 1783.97L3485 1816Z" fill="#FFFFFF" fill-rule="evenodd"/><path d="M2501 657.667 2501 921 2730 789.152 2730 526 2501 657.667Z" fill="#24676A" fill-rule="evenodd"/><path d="M2518 666.982 2518 893 2713 779.837 2713 554 2518 666.982Z" fill="#2C999E" fill-rule="evenodd"/><path d="M2594.24 698.76C2583.85 719.019 2586.74 741.366 2600.7 748.676 2614.66 755.985 2634.38 745.483 2644.77 725.223 2655.16 704.963 2652.25 682.635 2638.29 675.325 2624.33 668.016 2604.61 678.517 2594.24 698.76Z" fill="#24676A" fill-rule="evenodd"/><path d="M2556.06 890C2549.71 867.214 2553.12 837.839 2567.37 810.174 2591.33 763.655 2636.85 739.558 2669.05 756.338 2686.4 765.438 2696.32 784.439 2698 807.299Z" fill="#24676A" fill-rule="evenodd"/><path d="M2419.51 692.196 2269.15 779.545C2264.1 782.454 2260.98 787.857 2261 793.699L2261 897.589C2260.92 906.573 2268.13 913.922 2277.09 913.999 2280.05 914.027 2282.96 913.238 2285.51 911.725L2393.11 849.088C2424.5 852.035 2435.45 853.643 2435.45 853.643L2425.79 830.143 2435.87 824.34C2440.92 821.424 2444.03 816.014 2444 810.168L2444 706.351C2443.99 697.316 2436.69 689.994 2427.67 690 2424.8 690 2421.99 690.759 2419.51 692.196Z" fill="#2C999E" fill-rule="evenodd"/><path d="M2261.18 897.693 2261.18 793.912C2261.16 788.076 2264.27 782.678 2269.32 779.772L2419.54 692.515C2423.01 690.518 2427.09 689.875 2431 690.709 2425.78 685.521 2417.72 684.505 2411.38 688.235L2261.13 775.402C2256.1 778.326 2253 783.714 2253 789.542L2253 893.322C2253 903.67 2265.77 914.126 2276.42 913.999 2267.83 913.481 2261.14 906.323 2261.18 897.693Z" fill="#24676A" fill-rule="evenodd"/><path d="M2417 776.199 2417 777.496C2417 779.313 2416.04 780.992 2414.48 781.9L2327.55 832.319C2325.14 833.722 2322.06 832.888 2320.67 830.458 2320.23 829.691 2320 828.819 2320 827.933L2320 826.654C2320 824.846 2320.95 823.174 2322.5 822.268L2409.38 771.74C2411.74 770.285 2414.83 771.042 2416.27 773.43 2416.77 774.262 2417.02 775.225 2417 776.199Z" fill="#24676A" fill-rule="evenodd"/><path d="M2417 748.105 2417 749.349C2417 751.138 2416.04 752.791 2414.47 753.678L2301.61 818.317C2299.19 819.711 2296.1 818.903 2294.69 816.51 2294.24 815.746 2294 814.874 2294 813.989L2294 812.727C2293.98 810.928 2294.93 809.256 2296.49 808.344L2409.35 743.704C2411.76 742.29 2414.86 743.071 2416.29 745.452 2416.77 746.255 2417.02 747.173 2417 748.105Z" fill="#24676A" fill-rule="evenodd"/><path d="M2419.51 910.196 2269.15 997.545C2264.1 1000.45 2260.98 1005.86 2261 1011.7L2261 1115.59C2260.92 1124.57 2268.13 1131.92 2277.09 1132 2280.05 1132.03 2282.96 1131.24 2285.51 1129.73L2393.12 1067.18C2424.52 1070.12 2435.47 1071.73 2435.47 1071.73L2425.8 1048.23 2435.88 1042.43C2440.97 1039.49 2444.07 1034.02 2444 1028.13L2444 924.369C2444 915.334 2436.7 908.005 2427.69 908 2424.82 907.998 2421.99 908.756 2419.51 910.196Z" fill="#2C999E" fill-rule="evenodd"/><path d="M2261.18 1115.69 2261.18 1011.92C2261.16 1006.08 2264.27 1000.68 2269.32 997.779L2419.54 910.526C2423.01 908.529 2427.09 907.886 2431 908.72 2425.78 903.525 2417.73 902.503 2411.38 906.229L2261.13 993.409C2256.1 996.332 2253 1001.72 2253 1007.55L2253 1111.32C2253 1121.67 2265.77 1132.13 2276.42 1132 2267.83 1131.48 2261.14 1124.32 2261.18 1115.69Z" fill="#24676A" fill-rule="evenodd"/><path d="M2356.63 991.238C2362.34 980.181 2377.32 959.422 2393.02 968.043 2408.72 976.664 2393.02 1006.87 2393.02 1006.87L2356.63 1070 2314.19 1044.62C2314.19 1044.62 2302.97 1025.49 2322.62 1002.83 2332.92 990.931 2344.93 987.468 2356.63 991.238Z" fill="#24676A" fill-rule="evenodd"/><path d="M2261.18 1336.68 2261.18 1232.9C2261.18 1227.07 2264.29 1221.68 2269.32 1218.76L2419.54 1131.53C2423.01 1129.53 2427.09 1128.89 2431 1129.72 2425.78 1124.53 2417.73 1123.5 2411.38 1127.23L2261.13 1214.46C2256.1 1217.36 2253 1222.73 2253 1228.55L2253 1332.32C2253 1342.67 2265.79 1353.13 2276.42 1353 2267.82 1352.48 2261.13 1345.31 2261.18 1336.68Z" fill="#24676A" fill-rule="evenodd"/><path d="M2419.51 1131.2 2269.15 1218.53C2264.11 1221.45 2261 1226.84 2261 1232.68L2261 1336.57C2260.91 1345.56 2268.11 1352.91 2277.07 1353 2280.04 1353.03 2282.96 1352.24 2285.51 1350.73L2393.11 1288.09C2424.5 1291.02 2435.45 1292.64 2435.45 1292.64L2425.78 1269.14 2435.87 1263.34C2440.92 1260.4 2444.03 1254.97 2444 1249.11L2444 1145.35C2443.99 1136.32 2436.69 1128.99 2427.67 1129 2424.8 1129 2421.99 1129.76 2419.51 1131.2Z" fill="#2C999E" fill-rule="evenodd"/><path d="M2328 1238 2328 1306.01 2316 1313 2316 1245.22 2328 1238Z" fill="#24676A" fill-rule="evenodd"/><path d="M2336 1233.26 2336 1302 2374.98 1279.3C2387.37 1272.07 2395 1258.72 2395 1244.27L2395 1211.27C2394.99 1207.25 2391.77 1204.01 2387.8 1204.02 2386.5 1204.02 2385.22 1204.38 2384.11 1205.05L2360.55 1219.44 2360.35 1193.52C2360.35 1183.95 2347.77 1180.34 2342.96 1188.6 2338.61 1196.12 2345.47 1218.35 2336 1233.26Z" fill="#24676A" fill-rule="evenodd"/></g></svg>